<svg xmlns="http://www.w3.org/2000/svg" width="1508.906005859375" height="1345.375244140625" viewBox="-860.9884033203125 -634.481201171875 1508.906005859375 1345.375244140625"><title>Neo4j Graph Visualization</title><desc>Created using Neo4j (http://www.neo4j.com/)</desc><g class="layer relationships"><g class="relationship" transform="translate(259.55851760474354 649.2422889562079) rotate(235.43686629379187)"><path class="b-outline" fill="#A5ABB6" stroke="none" d="M 32.5 2.5 L 117.13885460893118 2.5 L 117.13885460893118 -2.5 L 32.5 -2.5 Z M 147.60760460893118 2.5 L 232.24645921786237 2.5 L 232.24645921786237 5.5 L 243.24645921786237 0 L 232.24645921786237 -5.5 L 232.24645921786237 -2.5 L 147.60760460893118 -2.5 Z"/><text text-anchor="middle" pointer-events="none" font-size="8px" fill="#000000" x="132.37322960893118" y="3" transform="rotate(180 132.37322960893118 0)" font-family="Helvetica Neue, Helvetica, Arial, sans-serif">216.37</text></g><g class="relationship" transform="translate(31.96689505354945 -312.59019636048146) rotate(492.5174190154661)"><path class="b-outline" fill="#A5ABB6" stroke="none" d="M 32.5 2.5 L 75.90933209420723 2.5 L 75.90933209420723 -2.5 L 32.5 -2.5 Z M 105.78433209420723 2.5 L 149.19366418841446 2.5 L 149.19366418841446 5.5 L 160.19366418841446 0 L 149.19366418841446 -5.5 L 149.19366418841446 -2.5 L 105.78433209420723 -2.5 Z"/><text text-anchor="middle" pointer-events="none" font-size="8px" fill="#000000" x="90.84683209420723" y="3" transform="rotate(180 90.84683209420723 0)" font-family="Helvetica Neue, Helvetica, Arial, sans-serif">75.118</text></g><g class="relationship" transform="translate(-235.80914605634794 -304.0595145102843) rotate(404.1434262943403)"><path class="b-outline" fill="#A5ABB6" stroke="none" d="M 32.5 2.5 L 75.10673716293765 2.5 L 75.10673716293765 -2.5 L 32.5 -2.5 Z M 105.57548716293765 2.5 L 148.1822243258753 2.5 L 148.1822243258753 5.5 L 159.1822243258753 0 L 148.1822243258753 -5.5 L 148.1822243258753 -2.5 L 105.57548716293765 -2.5 Z"/><text text-anchor="middle" pointer-events="none" font-size="8px" fill="#000000" x="90.34111216293765" y="3" font-family="Helvetica Neue, Helvetica, Arial, sans-serif">87.656</text></g><g class="relationship" transform="translate(-88.29977976508832 -357.4813511962989) rotate(453.04963759686507)"><path class="b-outline" fill="#A5ABB6" stroke="none" d="M 32.5 2.5 L 75.08289950857035 2.5 L 75.08289950857035 -2.5 L 32.5 -2.5 Z M 101.10243075857035 2.5 L 143.6853302671407 2.5 L 143.6853302671407 5.5 L 154.6853302671407 0 L 143.6853302671407 -5.5 L 143.6853302671407 -2.5 L 101.10243075857035 -2.5 Z"/><text text-anchor="middle" pointer-events="none" font-size="8px" fill="#000000" x="88.09266513357035" y="3" transform="rotate(180 88.09266513357035 0)" font-family="Helvetica Neue, Helvetica, Arial, sans-serif">8.241</text></g><g class="relationship" transform="translate(-824.4884283007121 -82.97429214281857) rotate(400.8122794637253)"><path class="b-outline" fill="#A5ABB6" stroke="none" d="M 30.745541741638416,-10.826433531554594 L 32.03963696715102,-5.996804400109253 A 211.16248359219054 211.16248359219054 0 0 1 66.28412289956478,-12.203465047875767 L 65.80088397176812,-17.180058274035815 A 216.16248359219054 216.16248359219054 0 0 0 30.745541741638416,-10.826433531554594 Z M 101.08410250133774,-17.712380151244787 L 100.75121418209243,-12.723473921728129 A 211.16248359219054 211.16248359219054 0 0 1 135.16735268893225,-7.552703819525458 L 134.47866723876598,-4.632821570062435 L 146.44749214543526,-7.460759043468217 L 137.00384722270906,-15.339056484760185 L 136.31516177254278,-12.419174235297163 A 216.16248359219054 216.16248359219054 0 0 0 101.08410250133774,-17.712380151244787"/><text text-anchor="middle" pointer-events="none" font-size="8px" fill="#000000" x="83.46932627731866" y="-12.667678668497757" font-family="Helvetica Neue, Helvetica, Arial, sans-serif">446.137</text></g><g class="relationship" transform="translate(-137.8224395022716 446.85000854606045) rotate(354.1503547270638)"><path class="b-outline" fill="#A5ABB6" stroke="none" d="M 32.5 2.5 L 102.59391528861613 2.5 L 102.59391528861613 -2.5 L 32.5 -2.5 Z M 128.61344653861613 2.5 L 198.70736182723226 2.5 L 198.70736182723226 5.5 L 209.70736182723226 0 L 198.70736182723226 -5.5 L 198.70736182723226 -2.5 L 128.61344653861613 -2.5 Z"/><text text-anchor="middle" pointer-events="none" font-size="8px" fill="#000000" x="115.60368091361613" y="3" font-family="Helvetica Neue, Helvetica, Arial, sans-serif">0.047</text></g><g class="relationship" transform="translate(103.12369355582237 422.16464673669896) rotate(206.12010026345467)"><path class="b-outline" fill="#A5ABB6" stroke="none" d="M 32.5 2.5 L 420.7710287805713 2.5 L 420.7710287805713 -2.5 L 32.5 -2.5 Z M 451.2397787805713 2.5 L 839.5108075611427 2.5 L 839.5108075611427 5.5 L 850.5108075611427 0 L 839.5108075611427 -5.5 L 839.5108075611427 -2.5 L 451.2397787805713 -2.5 Z"/><text text-anchor="middle" pointer-events="none" font-size="8px" fill="#000000" x="436.0054037805713" y="3" transform="rotate(180 436.0054037805713 0)" font-family="Helvetica Neue, Helvetica, Arial, sans-serif">612.36</text></g><g class="relationship" transform="translate(203.13188669428945 -133.24026417733933) rotate(187.0589469429069)"><path class="b-outline" fill="#A5ABB6" stroke="none" d="M 32.5 2.5 L 133.33625492230942 2.5 L 133.33625492230942 -2.5 L 32.5 -2.5 Z M 159.35578617230942 2.5 L 260.19204109461884 2.5 L 260.19204109461884 5.5 L 271.19204109461884 0 L 260.19204109461884 -5.5 L 260.19204109461884 -2.5 L 159.35578617230942 -2.5 Z"/><text text-anchor="middle" pointer-events="none" font-size="8px" fill="#000000" x="146.34602054730942" y="3" transform="rotate(180 146.34602054730942 0)" font-family="Helvetica Neue, Helvetica, Arial, sans-serif">106.5</text></g><g class="relationship" transform="translate(-98.2582431247929 -170.56110918187187) rotate(520.9719395062566)"><path class="b-outline" fill="#A5ABB6" stroke="none" d="M 32.5 2.5 L 292.0831777595592 2.5 L 292.0831777595592 -2.5 L 32.5 -2.5 Z M 322.5519277595592 2.5 L 582.1351055191184 2.5 L 582.1351055191184 5.5 L 593.1351055191184 0 L 582.1351055191184 -5.5 L 582.1351055191184 -2.5 L 322.5519277595592 -2.5 Z"/><text text-anchor="middle" pointer-events="none" font-size="8px" fill="#000000" x="307.3175527595592" y="3" transform="rotate(180 307.3175527595592 0)" font-family="Helvetica Neue, Helvetica, Arial, sans-serif">180.36</text></g><g class="relationship" transform="translate(93.7972950499014 -597.9811831757263) rotate(478.7934417881736)"><path class="b-outline" fill="#A5ABB6" stroke="none" d="M 32.5 2.5 L 72.65372886881397 2.5 L 72.65372886881397 -2.5 L 32.5 -2.5 Z M 98.67326011881397 2.5 L 138.82698898762794 2.5 L 138.82698898762794 5.5 L 149.82698898762794 0 L 138.82698898762794 -5.5 L 138.82698898762794 -2.5 L 98.67326011881397 -2.5 Z"/><text text-anchor="middle" pointer-events="none" font-size="8px" fill="#000000" x="85.66349449381397" y="3" transform="rotate(180 85.66349449381397 0)" font-family="Helvetica Neue, Helvetica, Arial, sans-serif">8.752</text></g><g class="relationship" transform="translate(54.76493931952666 614.782618885773) rotate(284.0934142679735)"><path class="b-outline" fill="#A5ABB6" stroke="none" d="M 32.5 2.5 L 78.56347531171107 2.5 L 78.56347531171107 -2.5 L 32.5 -2.5 Z M 109.03222531171107 2.5 L 155.09570062342215 2.5 L 155.09570062342215 5.5 L 166.09570062342215 0 L 155.09570062342215 -5.5 L 155.09570062342215 -2.5 L 109.03222531171107 -2.5 Z"/><text text-anchor="middle" pointer-events="none" font-size="8px" fill="#000000" x="93.79785031171107" y="3" font-family="Helvetica Neue, Helvetica, Arial, sans-serif">172.79</text></g><g class="relationship" transform="translate(-222.50786609139902 -584.0429128926894) rotate(442.7332436851816)"><path class="b-outline" fill="#A5ABB6" stroke="none" d="M 32.5 2.5 L 65.1510366332903 2.5 L 65.1510366332903 -2.5 L 32.5 -2.5 Z M 91.1705678832903 2.5 L 123.8216045165806 2.5 L 123.8216045165806 5.5 L 134.8216045165806 0 L 123.8216045165806 -5.5 L 123.8216045165806 -2.5 L 91.1705678832903 -2.5 Z"/><text text-anchor="middle" pointer-events="none" font-size="8px" fill="#000000" x="78.1608022582903" y="3" font-family="Helvetica Neue, Helvetica, Arial, sans-serif">2.248</text></g><g class="relationship" transform="translate(-512.962770927692 227.88530516994243) rotate(227.73365531206343)"><path class="b-outline" fill="#A5ABB6" stroke="none" d="M 32.5 2.5 L 108.43490252094392 2.5 L 108.43490252094392 -2.5 L 32.5 -2.5 Z M 143.35287127094392 2.5 L 219.28777379188784 2.5 L 219.28777379188784 5.5 L 230.28777379188784 0 L 219.28777379188784 -5.5 L 219.28777379188784 -2.5 L 143.35287127094392 -2.5 Z"/><text text-anchor="middle" pointer-events="none" font-size="8px" fill="#000000" x="125.89388689594392" y="3" transform="rotate(180 125.89388689594392 0)" font-family="Helvetica Neue, Helvetica, Arial, sans-serif">109.324</text></g><g class="relationship" transform="translate(304.2668439257324 221.16088953681515) rotate(495.0198600060457)"><path class="b-outline" fill="#A5ABB6" stroke="none" d="M 32.5 2.5 L 123.67064560418629 2.5 L 123.67064560418629 -2.5 L 32.5 -2.5 Z M 149.6901768541863 2.5 L 240.86082245837258 2.5 L 240.86082245837258 5.5 L 251.86082245837258 0 L 240.86082245837258 -5.5 L 240.86082245837258 -2.5 L 149.6901768541863 -2.5 Z"/><text text-anchor="middle" pointer-events="none" font-size="8px" fill="#000000" x="136.6804112291863" y="3" transform="rotate(180 136.6804112291863 0)" font-family="Helvetica Neue, Helvetica, Arial, sans-serif">37.03</text></g><g class="relationship" transform="translate(-524.3956445738963 -140.5890473108111) rotate(493.5326046529221)"><path class="b-outline" fill="#A5ABB6" stroke="none" d="M 32.5 2.5 L 97.04700274382911 2.5 L 97.04700274382911 -2.5 L 32.5 -2.5 Z M 131.96497149382913 2.5 L 196.51197423765822 2.5 L 196.51197423765822 5.5 L 207.51197423765822 0 L 196.51197423765822 -5.5 L 196.51197423765822 -2.5 L 131.96497149382913 -2.5 Z"/><text text-anchor="middle" pointer-events="none" font-size="8px" fill="#000000" x="114.50598711882911" y="3" transform="rotate(180 114.50598711882911 0)" font-family="Helvetica Neue, Helvetica, Arial, sans-serif">189.568</text></g><g class="relationship" transform="translate(5.978886947400806 -438.1967718220612) rotate(471.2796197664344)"><path class="b-outline" fill="#A5ABB6" stroke="none" d="M 32.5 2.5 L 125.09927587530098 2.5 L 125.09927587530098 -2.5 L 32.5 -2.5 Z M 151.11880712530098 2.5 L 243.71808300060195 2.5 L 243.71808300060195 5.5 L 254.71808300060195 0 L 243.71808300060195 -5.5 L 243.71808300060195 -2.5 L 151.11880712530098 -2.5 Z"/><text text-anchor="middle" pointer-events="none" font-size="8px" fill="#000000" x="138.10904150030098" y="3" transform="rotate(180 138.10904150030098 0)" font-family="Helvetica Neue, Helvetica, Arial, sans-serif">106.5</text></g><g class="relationship" transform="translate(511.6773796012502 308.83203564948894) rotate(524.4960091506471)"><path class="b-outline" fill="#A5ABB6" stroke="none" d="M 32.5 2.5 L 189.03181443307966 2.5 L 189.03181443307966 -2.5 L 32.5 -2.5 Z M 223.94978318307966 2.5 L 380.4815976161593 2.5 L 380.4815976161593 5.5 L 391.4815976161593 0 L 380.4815976161593 -5.5 L 380.4815976161593 -2.5 L 223.94978318307966 -2.5 Z"/><text text-anchor="middle" pointer-events="none" font-size="8px" fill="#000000" x="206.49079880807966" y="3" transform="rotate(180 206.49079880807966 0)" font-family="Helvetica Neue, Helvetica, Arial, sans-serif">193.023</text></g><g class="relationship" transform="translate(-425.3631908299219 55.2172315759909) rotate(184.71478724212466)"><path class="b-outline" fill="#A5ABB6" stroke="none" d="M 32.5 2.5 L 114.40829204648026 2.5 L 114.40829204648026 -2.5 L 32.5 -2.5 Z M 139.83407329648026 2.5 L 221.7423653429605 2.5 L 221.7423653429605 5.5 L 232.7423653429605 0 L 221.7423653429605 -5.5 L 221.7423653429605 -2.5 L 139.83407329648026 -2.5 Z"/><text text-anchor="middle" pointer-events="none" font-size="8px" fill="#000000" x="127.12118267148026" y="3" transform="rotate(180 127.12118267148026 0)" font-family="Helvetica Neue, Helvetica, Arial, sans-serif">2.911</text></g><g class="relationship" transform="translate(-671.7353158187329 551.4769846984145) rotate(309.7292177034119)"><path class="b-outline" fill="#A5ABB6" stroke="none" d="M 32.5 2.5 L 47.02094528223104 2.5 L 47.02094528223104 -2.5 L 32.5 -2.5 Z M 73.04047653223104 2.5 L 87.56142181446208 2.5 L 87.56142181446208 5.5 L 98.56142181446208 0 L 87.56142181446208 -5.5 L 87.56142181446208 -2.5 L 73.04047653223104 -2.5 Z"/><text text-anchor="middle" pointer-events="none" font-size="8px" fill="#000000" x="60.03071090723104" y="3" font-family="Helvetica Neue, Helvetica, Arial, sans-serif">1.656</text></g><g class="relationship" transform="translate(232.48381752033825 197.15683430348548) rotate(479.8951952496742)"><path class="b-outline" fill="#A5ABB6" stroke="none" d="M 32.5 2.5 L 111.2617232777007 2.5 L 111.2617232777007 -2.5 L 32.5 -2.5 Z M 137.2812545277007 2.5 L 216.0429778054014 2.5 L 216.0429778054014 5.5 L 227.0429778054014 0 L 216.0429778054014 -5.5 L 216.0429778054014 -2.5 L 137.2812545277007 -2.5 Z"/><text text-anchor="middle" pointer-events="none" font-size="8px" fill="#000000" x="124.2714889027007" y="3" transform="rotate(180 124.2714889027007 0)" font-family="Helvetica Neue, Helvetica, Arial, sans-serif">192.8</text></g><g class="relationship" transform="translate(30.89174534894738 225.73595679986897) rotate(429.8102096261641)"><path class="b-outline" fill="#A5ABB6" stroke="none" d="M 32.5 2.5 L 83.90988496209725 2.5 L 83.90988496209725 -2.5 L 32.5 -2.5 Z M 114.37863496209725 2.5 L 165.7885199241945 2.5 L 165.7885199241945 5.5 L 176.7885199241945 0 L 165.7885199241945 -5.5 L 165.7885199241945 -2.5 L 114.37863496209725 -2.5 Z"/><text text-anchor="middle" pointer-events="none" font-size="8px" fill="#000000" x="99.14425996209725" y="3" font-family="Helvetica Neue, Helvetica, Arial, sans-serif">15.424</text></g><g class="relationship" transform="translate(-150.30886558005602 674.3940749331172) rotate(315.38190198189574)"><path class="b-outline" fill="#A5ABB6" stroke="none" d="M 32.5 2.5 L 64.76533974191713 2.5 L 64.76533974191713 -2.5 L 32.5 -2.5 Z M 95.23408974191713 2.5 L 127.49942948383426 2.5 L 127.49942948383426 5.5 L 138.49942948383426 0 L 127.49942948383426 -5.5 L 127.49942948383426 -2.5 L 95.23408974191713 -2.5 Z"/><text text-anchor="middle" pointer-events="none" font-size="8px" fill="#000000" x="79.99971474191713" y="3" font-family="Helvetica Neue, Helvetica, Arial, sans-serif">67.021</text></g><g class="relationship" transform="translate(125.1172283418777 -213.96059049149304) rotate(529.0050203961632)"><path class="b-outline" fill="#A5ABB6" stroke="none" d="M 32.5 2.5 L 95.26645797960634 2.5 L 95.26645797960634 -2.5 L 32.5 -2.5 Z M 121.28598922960634 2.5 L 184.0524472092127 2.5 L 184.0524472092127 5.5 L 195.0524472092127 0 L 184.0524472092127 -5.5 L 184.0524472092127 -2.5 L 121.28598922960634 -2.5 Z"/><text text-anchor="middle" pointer-events="none" font-size="8px" fill="#000000" x="108.27622360460634" y="3" transform="rotate(180 108.27622360460634 0)" font-family="Helvetica Neue, Helvetica, Arial, sans-serif">2.653</text></g><g class="relationship" transform="translate(379.4488435643887 410.0166060749883) rotate(537.4827352326408)"><path class="b-outline" fill="#A5ABB6" stroke="none" d="M 32.5 2.5 L 119.78626054637564 2.5 L 119.78626054637564 -2.5 L 32.5 -2.5 Z M 145.80579179637564 2.5 L 233.0920523427513 2.5 L 233.0920523427513 5.5 L 244.0920523427513 0 L 233.0920523427513 -5.5 L 233.0920523427513 -2.5 L 145.80579179637564 -2.5 Z"/><text text-anchor="middle" pointer-events="none" font-size="8px" fill="#000000" x="132.79602617137564" y="3" transform="rotate(180 132.79602617137564 0)" font-family="Helvetica Neue, Helvetica, Arial, sans-serif">1.018</text></g><g class="relationship" transform="translate(-201.34351053573937 -418.06523550227456) rotate(427.38831190375026)"><path class="b-outline" fill="#A5ABB6" stroke="none" d="M 32.5 2.5 L 115.54699931322702 2.5 L 115.54699931322702 -2.5 L 32.5 -2.5 Z M 141.56653056322702 2.5 L 224.61352987645404 2.5 L 224.61352987645404 5.5 L 235.61352987645404 0 L 224.61352987645404 -5.5 L 224.61352987645404 -2.5 L 141.56653056322702 -2.5 Z"/><text text-anchor="middle" pointer-events="none" font-size="8px" fill="#000000" x="128.55676493822702" y="3" font-family="Helvetica Neue, Helvetica, Arial, sans-serif">177.5</text></g><g class="relationship" transform="translate(511.14058729427325 671.4312625355205) rotate(211.42168807475213)"><path class="b-outline" fill="#A5ABB6" stroke="none" d="M 32.5 2.5 L 218.3323684670555 2.5 L 218.3323684670555 -2.5 L 32.5 -2.5 Z M 248.8011184670555 2.5 L 434.633486934111 2.5 L 434.633486934111 5.5 L 445.633486934111 0 L 434.633486934111 -5.5 L 434.633486934111 -2.5 L 248.8011184670555 -2.5 Z"/><text text-anchor="middle" pointer-events="none" font-size="8px" fill="#000000" x="233.5667434670555" y="3" transform="rotate(180 233.5667434670555 0)" font-family="Helvetica Neue, Helvetica, Arial, sans-serif">15.338</text></g><g class="relationship" transform="translate(-575.8731252676035 -410.72616072650754) rotate(407.2357735726023)"><path class="b-outline" fill="#A5ABB6" stroke="none" d="M 32.5 2.5 L 75.99776041503766 2.5 L 75.99776041503766 -2.5 L 32.5 -2.5 Z M 106.46651041503766 2.5 L 149.96427083007532 2.5 L 149.96427083007532 5.5 L 160.96427083007532 0 L 149.96427083007532 -5.5 L 149.96427083007532 -2.5 L 106.46651041503766 -2.5 Z"/><text text-anchor="middle" pointer-events="none" font-size="8px" fill="#000000" x="91.23213541503766" y="3" font-family="Helvetica Neue, Helvetica, Arial, sans-serif">35.833</text></g><g class="relationship" transform="translate(362.4315191874107 480.3003138647991) rotate(192.63650667851323)"><path class="b-outline" fill="#A5ABB6" stroke="none" d="M 32.5 2.5 L 112.13803017335746 2.5 L 112.13803017335746 -2.5 L 32.5 -2.5 Z M 142.60678017335746 2.5 L 222.24481034671493 2.5 L 222.24481034671493 5.5 L 233.24481034671493 0 L 222.24481034671493 -5.5 L 222.24481034671493 -2.5 L 142.60678017335746 -2.5 Z"/><text text-anchor="middle" pointer-events="none" font-size="8px" fill="#000000" x="127.37240517335746" y="3" transform="rotate(180 127.37240517335746 0)" font-family="Helvetica Neue, Helvetica, Arial, sans-serif">14.046</text></g><g class="relationship" transform="translate(-281.6902115607553 -188.3486146844276) rotate(365.5386880059191)"><path class="b-outline" fill="#A5ABB6" stroke="none" d="M 32.5 2.5 L 71.41181645181118 2.5 L 71.41181645181118 -2.5 L 32.5 -2.5 Z M 101.88056645181118 2.5 L 140.79238290362235 2.5 L 140.79238290362235 5.5 L 151.79238290362235 0 L 140.79238290362235 -5.5 L 140.79238290362235 -2.5 L 101.88056645181118 -2.5 Z"/><text text-anchor="middle" pointer-events="none" font-size="8px" fill="#000000" x="86.64619145181118" y="3" font-family="Helvetica Neue, Helvetica, Arial, sans-serif">124.25</text></g><g class="relationship" transform="translate(552.9599581988995 -111.26640089104941) rotate(183.78990922854763)"><path class="b-outline" fill="#A5ABB6" stroke="none" d="M 32.5 2.5 L 66.1664784908636 2.5 L 66.1664784908636 -2.5 L 32.5 -2.5 Z M 96.6352284908636 2.5 L 130.3017069817272 2.5 L 130.3017069817272 5.5 L 141.3017069817272 0 L 130.3017069817272 -5.5 L 130.3017069817272 -2.5 L 96.6352284908636 -2.5 Z"/><text text-anchor="middle" pointer-events="none" font-size="8px" fill="#000000" x="81.4008534908636" y="3" transform="rotate(180 81.4008534908636 0)" font-family="Helvetica Neue, Helvetica, Arial, sans-serif">24.299</text></g><g class="relationship" transform="translate(611.4175314863908 159.09520001847108) rotate(483.6677021947766)"><path class="b-outline" fill="#A5ABB6" stroke="none" d="M 32.5 2.5 L 69.22286184459935 2.5 L 69.22286184459935 -2.5 L 32.5 -2.5 Z M 99.69161184459935 2.5 L 136.4144736891987 2.5 L 136.4144736891987 5.5 L 147.4144736891987 0 L 136.4144736891987 -5.5 L 136.4144736891987 -2.5 L 99.69161184459935 -2.5 Z"/><text text-anchor="middle" pointer-events="none" font-size="8px" fill="#000000" x="84.45723684459935" y="3" transform="rotate(180 84.45723684459935 0)" font-family="Helvetica Neue, Helvetica, Arial, sans-serif">17.943</text></g><g class="relationship" transform="translate(183.45827305274653 -317.8816495922096) rotate(512.393179315259)"><path class="b-outline" fill="#A5ABB6" stroke="none" d="M 32.5 2.5 L 138.22122974076072 2.5 L 138.22122974076072 -2.5 L 32.5 -2.5 Z M 168.68997974076072 2.5 L 274.41120948152144 2.5 L 274.41120948152144 5.5 L 285.41120948152144 0 L 274.41120948152144 -5.5 L 274.41120948152144 -2.5 L 168.68997974076072 -2.5 Z"/><text text-anchor="middle" pointer-events="none" font-size="8px" fill="#000000" x="153.45560474076072" y="3" transform="rotate(180 153.45560474076072 0)" font-family="Helvetica Neue, Helvetica, Arial, sans-serif">25.493</text></g><g class="relationship" transform="translate(92.93783745861339 157.90634004948743) rotate(447.79262266555816)"><path class="b-outline" fill="#A5ABB6" stroke="none" d="M 32.5 2.5 L 111.49289555871019 2.5 L 111.49289555871019 -2.5 L 32.5 -2.5 Z M 141.9616455587102 2.5 L 220.95454111742038 2.5 L 220.95454111742038 5.5 L 231.95454111742038 0 L 220.95454111742038 -5.5 L 220.95454111742038 -2.5 L 141.9616455587102 -2.5 Z"/><text text-anchor="middle" pointer-events="none" font-size="8px" fill="#000000" x="126.72727055871019" y="3" font-family="Helvetica Neue, Helvetica, Arial, sans-serif">77.005</text></g><g class="relationship" transform="translate(318.9621680372177 -445.21843850762735) rotate(496.77974805986537)"><path class="b-outline" fill="#A5ABB6" stroke="none" d="M 32.5 2.5 L 74.4632995165401 2.5 L 74.4632995165401 -2.5 L 32.5 -2.5 Z M 100.4828307665401 2.5 L 142.4461302830802 2.5 L 142.4461302830802 5.5 L 153.4461302830802 0 L 142.4461302830802 -5.5 L 142.4461302830802 -2.5 L 100.4828307665401 -2.5 Z"/><text text-anchor="middle" pointer-events="none" font-size="8px" fill="#000000" x="87.4730651415401" y="3" transform="rotate(180 87.4730651415401 0)" font-family="Helvetica Neue, Helvetica, Arial, sans-serif">0.383</text></g><g class="relationship" transform="translate(-54.64310769301929 265.28652584804945) rotate(404.83817473284876)"><path class="b-outline" fill="#A5ABB6" stroke="none" d="M 32.5 2.5 L 94.95906650993172 2.5 L 94.95906650993172 -2.5 L 32.5 -2.5 Z M 116.52937900993172 2.5 L 178.98844551986343 2.5 L 178.98844551986343 5.5 L 189.98844551986343 0 L 178.98844551986343 -5.5 L 178.98844551986343 -2.5 L 116.52937900993172 -2.5 Z"/><text text-anchor="middle" pointer-events="none" font-size="8px" fill="#000000" x="105.74422275993172" y="3" font-family="Helvetica Neue, Helvetica, Arial, sans-serif">57.3</text></g><g class="relationship" transform="translate(-268.2584724647743 -9.801603706422213) rotate(316.6003060078267)"><path class="b-outline" fill="#A5ABB6" stroke="none" d="M 32.5 2.5 L 98.47708895315057 2.5 L 98.47708895315057 -2.5 L 32.5 -2.5 Z M 124.49662020315057 2.5 L 190.47370915630114 2.5 L 190.47370915630114 5.5 L 201.47370915630114 0 L 190.47370915630114 -5.5 L 190.47370915630114 -2.5 L 124.49662020315057 -2.5 Z"/><text text-anchor="middle" pointer-events="none" font-size="8px" fill="#000000" x="111.48685457815057" y="3" font-family="Helvetica Neue, Helvetica, Arial, sans-serif">4.047</text></g><g class="relationship" transform="translate(-367.7642123688817 485.8773043736052) rotate(237.83971479497228)"><path class="b-outline" fill="#A5ABB6" stroke="none" d="M 32.5 2.5 L 58.19230171465131 2.5 L 58.19230171465131 -2.5 L 32.5 -2.5 Z M 84.21183296465131 2.5 L 109.90413467930262 2.5 L 109.90413467930262 5.5 L 120.90413467930262 0 L 109.90413467930262 -5.5 L 109.90413467930262 -2.5 L 84.21183296465131 -2.5 Z"/><text text-anchor="middle" pointer-events="none" font-size="8px" fill="#000000" x="71.20206733965131" y="3" transform="rotate(180 71.20206733965131 0)" font-family="Helvetica Neue, Helvetica, Arial, sans-serif">0.298</text></g><g class="relationship" transform="translate(-28.590749818825884 554.2878503678076) rotate(314.91123246035875)"><path class="b-outline" fill="#A5ABB6" stroke="none" d="M 32.5 2.5 L 70.61869724034935 2.5 L 70.61869724034935 -2.5 L 32.5 -2.5 Z M 104.94291599034935 2.5 L 143.0616132306987 2.5 L 143.0616132306987 5.5 L 154.0616132306987 0 L 143.0616132306987 -5.5 L 143.0616132306987 -2.5 L 104.94291599034935 -2.5 Z"/><text text-anchor="middle" pointer-events="none" font-size="8px" fill="#000000" x="87.78080661534935" y="3" font-family="Helvetica Neue, Helvetica, Arial, sans-serif">110.067</text></g><g class="relationship" transform="translate(-143.78805439139268 23.929751725161697) rotate(283.1755344726961)"><path class="b-outline" fill="#A5ABB6" stroke="none" d="M 32.5 2.5 L 81.36472897989309 2.5 L 81.36472897989309 -2.5 L 32.5 -2.5 Z M 107.38426022989309 2.5 L 156.24898920978617 2.5 L 156.24898920978617 5.5 L 167.24898920978617 0 L 156.24898920978617 -5.5 L 156.24898920978617 -2.5 L 107.38426022989309 -2.5 Z"/><text text-anchor="middle" pointer-events="none" font-size="8px" fill="#000000" x="94.37449460489309" y="3" font-family="Helvetica Neue, Helvetica, Arial, sans-serif">9.294</text></g><g class="relationship" transform="translate(-164.27688333215485 538.297298773074) rotate(336.52458894854146)"><path class="b-outline" fill="#A5ABB6" stroke="none" d="M 32.5 2.5 L 125.03072832468533 2.5 L 125.03072832468533 -2.5 L 32.5 -2.5 Z M 155.49947832468533 2.5 L 248.03020664937065 2.5 L 248.03020664937065 5.5 L 259.03020664937065 0 L 248.03020664937065 -5.5 L 248.03020664937065 -2.5 L 155.49947832468533 -2.5 Z"/><text text-anchor="middle" pointer-events="none" font-size="8px" fill="#000000" x="140.26510332468533" y="3" font-family="Helvetica Neue, Helvetica, Arial, sans-serif">19.633</text></g><g class="relationship" transform="translate(379.53833386157555 -122.75437555877284) rotate(183.4017524169464)"><path class="b-outline" fill="#A5ABB6" stroke="none" d="M 32.5 2.5 L 69.84914516263008 2.5 L 69.84914516263008 -2.5 L 32.5 -2.5 Z M 95.86867641263008 2.5 L 133.21782157526016 2.5 L 133.21782157526016 5.5 L 144.21782157526016 0 L 133.21782157526016 -5.5 L 133.21782157526016 -2.5 L 95.86867641263008 -2.5 Z"/><text text-anchor="middle" pointer-events="none" font-size="8px" fill="#000000" x="82.85891078763008" y="3" transform="rotate(180 82.85891078763008 0)" font-family="Helvetica Neue, Helvetica, Arial, sans-serif">74.68</text></g><g class="relationship" transform="translate(62.80980965794484 -65.25590752508916) rotate(213.17638721283106)"><path class="b-outline" fill="#A5ABB6" stroke="none" d="M 32.5 2.5 L 75.48426030938076 2.5 L 75.48426030938076 -2.5 L 32.5 -2.5 Z M 105.95301030938076 2.5 L 148.93727061876152 2.5 L 148.93727061876152 5.5 L 159.93727061876152 0 L 148.93727061876152 -5.5 L 148.93727061876152 -2.5 L 105.95301030938076 -2.5 Z"/><text text-anchor="middle" pointer-events="none" font-size="8px" fill="#000000" x="90.71863530938076" y="3" transform="rotate(180 90.71863530938076 0)" font-family="Helvetica Neue, Helvetica, Arial, sans-serif">29.079</text></g><g class="relationship" transform="translate(-37.81820662893921 37.821355211023224) rotate(253.82552748891663)"><path class="b-outline" fill="#A5ABB6" stroke="none" d="M 32.5 2.5 L 89.97554383908863 2.5 L 89.97554383908863 -2.5 L 32.5 -2.5 Z M 115.99507508908863 2.5 L 173.47061892817726 2.5 L 173.47061892817726 5.5 L 184.47061892817726 0 L 173.47061892817726 -5.5 L 173.47061892817726 -2.5 L 115.99507508908863 -2.5 Z"/><text text-anchor="middle" pointer-events="none" font-size="8px" fill="#000000" x="102.98530946408863" y="3" transform="rotate(180 102.98530946408863 0)" font-family="Helvetica Neue, Helvetica, Arial, sans-serif">91.42</text></g><g class="relationship" transform="translate(349.20953179805565 292.4049533564255) rotate(512.1975679698705)"><path class="b-outline" fill="#A5ABB6" stroke="none" d="M 32.5 2.5 L 118.36614423835977 2.5 L 118.36614423835977 -2.5 L 32.5 -2.5 Z M 148.83489423835977 2.5 L 234.70103847671953 2.5 L 234.70103847671953 5.5 L 245.70103847671953 0 L 234.70103847671953 -5.5 L 234.70103847671953 -2.5 L 148.83489423835977 -2.5 Z"/><text text-anchor="middle" pointer-events="none" font-size="8px" fill="#000000" x="133.60051923835977" y="3" transform="rotate(180 133.60051923835977 0)" font-family="Helvetica Neue, Helvetica, Arial, sans-serif">185.46</text></g><g class="relationship" transform="translate(-641.3842360315903 -157.8826915273355) rotate(464.17689457069963)"><path class="b-outline" fill="#A5ABB6" stroke="none" d="M 32.5 2.5 L 80.14387789877179 2.5 L 80.14387789877179 -2.5 L 32.5 -2.5 Z M 106.16340914877179 2.5 L 153.80728704754358 2.5 L 153.80728704754358 5.5 L 164.80728704754358 0 L 153.80728704754358 -5.5 L 153.80728704754358 -2.5 L 106.16340914877179 -2.5 Z"/><text text-anchor="middle" pointer-events="none" font-size="8px" fill="#000000" x="93.15364352377179" y="3" transform="rotate(180 93.15364352377179 0)" font-family="Helvetica Neue, Helvetica, Arial, sans-serif">38.48</text></g><g class="relationship" transform="translate(-587.9660861809732 450.6810896732468) rotate(325.65487775453175)"><path class="b-outline" fill="#A5ABB6" stroke="none" d="M 32.5 2.5 L 65.39124285581264 2.5 L 65.39124285581264 -2.5 L 32.5 -2.5 Z M 91.41077410581264 2.5 L 124.30201696162527 2.5 L 124.30201696162527 5.5 L 135.30201696162527 0 L 124.30201696162527 -5.5 L 124.30201696162527 -2.5 L 91.41077410581264 -2.5 Z"/><text text-anchor="middle" pointer-events="none" font-size="8px" fill="#000000" x="78.40100848081264" y="3" font-family="Helvetica Neue, Helvetica, Arial, sans-serif">3.583</text></g><g class="relationship" transform="translate(-449.41963877336195 356.01114297885186) rotate(243.6212025168615)"><path class="b-outline" fill="#A5ABB6" stroke="none" d="M 32.5 2.5 L 50.77429572988005 2.5 L 50.77429572988005 -2.5 L 32.5 -2.5 Z M 81.24304572988005 2.5 L 99.5173414597601 2.5 L 99.5173414597601 5.5 L 110.5173414597601 0 L 99.5173414597601 -5.5 L 99.5173414597601 -2.5 L 81.24304572988005 -2.5 Z"/><text text-anchor="middle" pointer-events="none" font-size="8px" fill="#000000" x="66.00867072988005" y="3" transform="rotate(180 66.00867072988005 0)" font-family="Helvetica Neue, Helvetica, Arial, sans-serif">43.027</text></g><g class="relationship" transform="translate(-444.51416354556636 -268.6936036731295) rotate(481.94620917265445)"><path class="b-outline" fill="#A5ABB6" stroke="none" d="M 32.5 2.5 L 52.52582928322175 2.5 L 52.52582928322175 -2.5 L 32.5 -2.5 Z M 87.44379803322175 2.5 L 107.4696273164435 2.5 L 107.4696273164435 5.5 L 118.4696273164435 0 L 107.4696273164435 -5.5 L 107.4696273164435 -2.5 L 87.44379803322175 -2.5 Z"/><text text-anchor="middle" pointer-events="none" font-size="8px" fill="#000000" x="69.98481365822175" y="3" transform="rotate(180 69.98481365822175 0)" font-family="Helvetica Neue, Helvetica, Arial, sans-serif">148.039</text></g><g class="relationship" transform="translate(-689.7080307649317 33.415443290105) rotate(220.8122794637253)"><path class="b-outline" fill="#A5ABB6" stroke="none" d="M 30.745541741638416,-10.826433531554594 L 32.03963696715102,-5.996804400109253 A 211.16248359219054 211.16248359219054 0 0 1 68.4734771046499,-12.404557192195 L 68.04207868772055,-17.38591196834483 A 216.16248359219054 216.16248359219054 0 0 0 30.745541741638416,-10.826433531554594 Z M 98.8377177769317,-17.850529230970125 L 98.5567900173329,-12.858427509862395 A 211.16248359219054 211.16248359219054 0 0 1 135.16735268893225,-7.552703819525458 L 134.47866723876598,-4.632821570062435 L 146.44749214543526,-7.460759043468217 L 137.00384722270906,-15.339056484760185 L 136.31516177254278,-12.419174235297163 A 216.16248359219054 216.16248359219054 0 0 0 98.8377177769317,-17.850529230970125"/><text text-anchor="middle" pointer-events="none" font-size="8px" fill="#000000" x="83.46932627731866" y="-12.667678668497757" transform="rotate(180 83.46932627731866 -15.667678668497757)" font-family="Helvetica Neue, Helvetica, Arial, sans-serif">434.69</text></g><g class="relationship" transform="translate(-789.0659153607562 180.47780274639484) rotate(304.0436437456221)"><path class="b-outline" fill="#A5ABB6" stroke="none" d="M 32.5 2.5 L 68.0058734786472 2.5 L 68.0058734786472 -2.5 L 32.5 -2.5 Z M 98.4746234786472 2.5 L 133.9804969572944 2.5 L 133.9804969572944 5.5 L 144.9804969572944 0 L 133.9804969572944 -5.5 L 133.9804969572944 -2.5 L 98.4746234786472 -2.5 Z"/><text text-anchor="middle" pointer-events="none" font-size="8px" fill="#000000" x="83.2402484786472" y="3" font-family="Helvetica Neue, Helvetica, Arial, sans-serif">78.196</text></g></g><g class="layer nodes"><g class="node" aria-label="graph-node13" transform="translate(259.55851760474354,649.2422889562079)"><circle class="b-outline" cx="0" cy="0" r="32.5" fill="#57C7E3" stroke="#23b3d7" stroke-width="2px"/><text class="caption" text-anchor="middle" pointer-events="none" x="0" y="5" font-size="10px" fill="#2A2C34" font-family="Helvetica Neue, Helvetica, Arial, sans-serif"> Australia</text></g><g class="node" aria-label="graph-node46" transform="translate(103.12369355582237,422.16464673669896)"><circle class="b-outline" cx="0" cy="0" r="32.5" fill="#57C7E3" stroke="#23b3d7" stroke-width="2px"/><text class="caption" text-anchor="middle" pointer-events="none" x="0" y="5" font-size="10px" fill="#2A2C34" font-family="Helvetica Neue, Helvetica, Arial, sans-serif"> China</text></g><g class="node" aria-label="graph-node14" transform="translate(31.96689505354945,-312.59019636048146)"><circle class="b-outline" cx="0" cy="0" r="32.5" fill="#57C7E3" stroke="#23b3d7" stroke-width="2px"/><text class="caption" text-anchor="middle" pointer-events="none" x="0" y="5" font-size="10px" fill="#2A2C34" font-family="Helvetica Neue, Helvetica, Arial, sans-serif"> Austria</text></g><g class="node" aria-label="graph-node87" transform="translate(-98.2582431247929,-170.56110918187187)"><circle class="b-outline" cx="0" cy="0" r="32.5" fill="#57C7E3" stroke="#23b3d7" stroke-width="2px"/><text class="caption" text-anchor="middle" pointer-events="none" x="0" y="5" font-size="10px" fill="#2A2C34" font-family="Helvetica Neue, Helvetica, Arial, sans-serif"> Germany</text></g><g class="node" aria-label="graph-node21" transform="translate(-235.80914605634794,-304.0595145102843)"><circle class="b-outline" cx="0" cy="0" r="32.5" fill="#57C7E3" stroke="#23b3d7" stroke-width="2px"/><text class="caption" text-anchor="middle" pointer-events="none" x="0" y="5" font-size="10px" fill="#2A2C34" font-family="Helvetica Neue, Helvetica, Arial, sans-serif"> Belgium</text></g><g class="node" aria-label="graph-node34" transform="translate(-88.29977976508832,-357.4813511962989)"><circle class="b-outline" cx="0" cy="0" r="32.5" fill="#57C7E3" stroke="#23b3d7" stroke-width="2px"/><text class="caption" text-anchor="middle" pointer-events="none" x="0" y="5" font-size="10px" fill="#2A2C34" font-family="Helvetica Neue, Helvetica, Arial, sans-serif"> Bulgaria</text></g><g class="node" aria-label="graph-node41" transform="translate(-824.4884283007121,-82.97429214281857)"><circle class="b-outline" cx="0" cy="0" r="32.5" fill="#57C7E3" stroke="#23b3d7" stroke-width="2px"/><text class="caption" text-anchor="middle" pointer-events="none" x="0" y="5" font-size="10px" fill="#2A2C34" font-family="Helvetica Neue, Helvetica, Arial, sans-serif"> Canada</text></g><g class="node" aria-label="graph-node550" transform="translate(-689.7080307649317,33.415443290105)"><circle class="b-outline" cx="0" cy="0" r="32.5" fill="#57C7E3" stroke="#23b3d7" stroke-width="2px"/><text class="caption" text-anchor="middle" pointer-events="none" x="0" y="5" font-size="10px" fill="#2A2C34" font-family="Helvetica Neue, Helvetica, Arial, sans-serif"> United States</text></g><g class="node" aria-label="graph-node43" transform="translate(-137.8224395022716,446.85000854606045)"><circle class="b-outline" cx="0" cy="0" r="32.5" fill="#57C7E3" stroke="#23b3d7" stroke-width="2px"/><text class="caption" text-anchor="middle" pointer-events="none" x="0" y="-5" font-size="10px" fill="#2A2C34" font-family="Helvetica Neue, Helvetica, Arial, sans-serif"> Central</text><text class="caption" text-anchor="middle" pointer-events="none" x="0" y="5" font-size="10px" fill="#2A2C34" font-family="Helvetica Neue, Helvetica, Arial, sans-serif"> African</text><text class="caption" text-anchor="middle" pointer-events="none" x="0" y="15" font-size="10px" fill="#2A2C34" font-family="Helvetica Neue, Helvetica, Arial, sans-serif"> Republic</text></g><g class="node" aria-label="graph-node80" transform="translate(203.13188669428945,-133.24026417733933)"><circle class="b-outline" cx="0" cy="0" r="32.5" fill="#57C7E3" stroke="#23b3d7" stroke-width="2px"/><text class="caption" text-anchor="middle" pointer-events="none" x="0" y="5" font-size="10px" fill="#2A2C34" font-family="Helvetica Neue, Helvetica, Arial, sans-serif"> France</text></g><g class="node" aria-label="graph-node90" transform="translate(93.7972950499014,-597.9811831757263)"><circle class="b-outline" cx="0" cy="0" r="32.5" fill="#57C7E3" stroke="#23b3d7" stroke-width="2px"/><text class="caption" text-anchor="middle" pointer-events="none" x="0" y="5" font-size="10px" fill="#2A2C34" font-family="Helvetica Neue, Helvetica, Arial, sans-serif"> Greece</text></g><g class="node" aria-label="graph-node113" transform="translate(5.978886947400806,-438.1967718220612)"><circle class="b-outline" cx="0" cy="0" r="32.5" fill="#57C7E3" stroke="#23b3d7" stroke-width="2px"/><text class="caption" text-anchor="middle" pointer-events="none" x="0" y="5" font-size="10px" fill="#2A2C34" font-family="Helvetica Neue, Helvetica, Arial, sans-serif"> Italy</text></g><g class="node" aria-label="graph-node103" transform="translate(54.76493931952666,614.782618885773)"><circle class="b-outline" cx="0" cy="0" r="32.5" fill="#57C7E3" stroke="#23b3d7" stroke-width="2px"/><text class="caption" text-anchor="middle" pointer-events="none" x="0" y="5" font-size="10px" fill="#2A2C34" font-family="Helvetica Neue, Helvetica, Arial, sans-serif"> Hong Kong</text></g><g class="node" aria-label="graph-node105" transform="translate(-222.50786609139902,-584.0429128926894)"><circle class="b-outline" cx="0" cy="0" r="32.5" fill="#57C7E3" stroke="#23b3d7" stroke-width="2px"/><text class="caption" text-anchor="middle" pointer-events="none" x="0" y="5" font-size="10px" fill="#2A2C34" font-family="Helvetica Neue, Helvetica, Arial, sans-serif"> Iceland</text></g><g class="node" aria-label="graph-node471" transform="translate(-201.34351053573937,-418.06523550227456)"><circle class="b-outline" cx="0" cy="0" r="32.5" fill="#57C7E3" stroke="#23b3d7" stroke-width="2px"/><text class="caption" text-anchor="middle" pointer-events="none" x="0" y="5" font-size="10px" fill="#2A2C34" font-family="Helvetica Neue, Helvetica, Arial, sans-serif"> Netherlands</text></g><g class="node" aria-label="graph-node106" transform="translate(-512.962770927692,227.88530516994243)"><circle class="b-outline" cx="0" cy="0" r="32.5" fill="#57C7E3" stroke="#23b3d7" stroke-width="2px"/><text class="caption" text-anchor="middle" pointer-events="none" x="0" y="5" font-size="10px" fill="#2A2C34" font-family="Helvetica Neue, Helvetica, Arial, sans-serif"> India</text></g><g class="node" aria-label="graph-node107" transform="translate(304.2668439257324,221.16088953681515)"><circle class="b-outline" cx="0" cy="0" r="32.5" fill="#57C7E3" stroke="#23b3d7" stroke-width="2px"/><text class="caption" text-anchor="middle" pointer-events="none" x="0" y="5" font-size="10px" fill="#2A2C34" font-family="Helvetica Neue, Helvetica, Arial, sans-serif"> Indonesia</text></g><g class="node" aria-label="graph-node110" transform="translate(-524.3956445738963,-140.5890473108111)"><circle class="b-outline" cx="0" cy="0" r="32.5" fill="#57C7E3" stroke="#23b3d7" stroke-width="2px"/><text class="caption" text-anchor="middle" pointer-events="none" x="0" y="5" font-size="10px" fill="#2A2C34" font-family="Helvetica Neue, Helvetica, Arial, sans-serif"> Ireland</text></g><g class="node" aria-label="graph-node116" transform="translate(511.6773796012502,308.83203564948894)"><circle class="b-outline" cx="0" cy="0" r="32.5" fill="#57C7E3" stroke="#23b3d7" stroke-width="2px"/><text class="caption" text-anchor="middle" pointer-events="none" x="0" y="5" font-size="10px" fill="#2A2C34" font-family="Helvetica Neue, Helvetica, Arial, sans-serif"> Japan</text></g><g class="node" aria-label="graph-node118" transform="translate(-425.3631908299219,55.2172315759909)"><circle class="b-outline" cx="0" cy="0" r="32.5" fill="#57C7E3" stroke="#23b3d7" stroke-width="2px"/><text class="caption" text-anchor="middle" pointer-events="none" x="0" y="5" font-size="10px" fill="#2A2C34" font-family="Helvetica Neue, Helvetica, Arial, sans-serif"> Jordan</text></g><g class="node" aria-label="graph-node120" transform="translate(-671.7353158187329,551.4769846984145)"><circle class="b-outline" cx="0" cy="0" r="32.5" fill="#57C7E3" stroke="#23b3d7" stroke-width="2px"/><text class="caption" text-anchor="middle" pointer-events="none" x="0" y="5" font-size="10px" fill="#2A2C34" font-family="Helvetica Neue, Helvetica, Arial, sans-serif"> Kenya</text></g><g class="node" aria-label="graph-node546" transform="translate(-587.9660861809732,450.6810896732468)"><circle class="b-outline" cx="0" cy="0" r="32.5" fill="#57C7E3" stroke="#23b3d7" stroke-width="2px"/><text class="caption" text-anchor="middle" pointer-events="none" x="0" y="5" font-size="10px" fill="#2A2C34" font-family="Helvetica Neue, Helvetica, Arial, sans-serif"> Uganda</text></g><g class="node" aria-label="graph-node123" transform="translate(232.48381752033825,197.15683430348548)"><circle class="b-outline" cx="0" cy="0" r="32.5" fill="#57C7E3" stroke="#23b3d7" stroke-width="2px"/><text class="caption" text-anchor="middle" pointer-events="none" x="0" y="5" font-size="10px" fill="#2A2C34" font-family="Helvetica Neue, Helvetica, Arial, sans-serif"> South Korea</text></g><g class="node" aria-label="graph-node377" transform="translate(30.89174534894738,225.73595679986897)"><circle class="b-outline" cx="0" cy="0" r="32.5" fill="#57C7E3" stroke="#23b3d7" stroke-width="2px"/><text class="caption" text-anchor="middle" pointer-events="none" x="0" y="5" font-size="10px" fill="#2A2C34" font-family="Helvetica Neue, Helvetica, Arial, sans-serif"> Kuwait</text></g><g class="node" aria-label="graph-node391" transform="translate(-150.30886558005602,674.3940749331172)"><circle class="b-outline" cx="0" cy="0" r="32.5" fill="#57C7E3" stroke="#23b3d7" stroke-width="2px"/><text class="caption" text-anchor="middle" pointer-events="none" x="0" y="5" font-size="10px" fill="#2A2C34" font-family="Helvetica Neue, Helvetica, Arial, sans-serif"> Malaysia</text></g><g class="node" aria-label="graph-node514" transform="translate(-28.590749818825884,554.2878503678076)"><circle class="b-outline" cx="0" cy="0" r="32.5" fill="#57C7E3" stroke="#23b3d7" stroke-width="2px"/><text class="caption" text-anchor="middle" pointer-events="none" x="0" y="5" font-size="10px" fill="#2A2C34" font-family="Helvetica Neue, Helvetica, Arial, sans-serif"> Singapore</text></g><g class="node" aria-label="graph-node394" transform="translate(125.1172283418777,-213.96059049149304)"><circle class="b-outline" cx="0" cy="0" r="32.5" fill="#57C7E3" stroke="#23b3d7" stroke-width="2px"/><text class="caption" text-anchor="middle" pointer-events="none" x="0" y="5" font-size="10px" fill="#2A2C34" font-family="Helvetica Neue, Helvetica, Arial, sans-serif"> Malta</text></g><g class="node" aria-label="graph-node396" transform="translate(379.4488435643887,410.0166060749883)"><circle class="b-outline" cx="0" cy="0" r="32.5" fill="#57C7E3" stroke="#23b3d7" stroke-width="2px"/><text class="caption" text-anchor="middle" pointer-events="none" x="0" y="5" font-size="10px" fill="#2A2C34" font-family="Helvetica Neue, Helvetica, Arial, sans-serif"> Mauritania</text></g><g class="node" aria-label="graph-node473" transform="translate(511.14058729427325,671.4312625355205)"><circle class="b-outline" cx="0" cy="0" r="32.5" fill="#57C7E3" stroke="#23b3d7" stroke-width="2px"/><text class="caption" text-anchor="middle" pointer-events="none" x="0" y="5" font-size="10px" fill="#2A2C34" font-family="Helvetica Neue, Helvetica, Arial, sans-serif"> New Zealand</text></g><g class="node" aria-label="graph-node481" transform="translate(-575.8731252676035,-410.72616072650754)"><circle class="b-outline" cx="0" cy="0" r="32.5" fill="#57C7E3" stroke="#23b3d7" stroke-width="2px"/><text class="caption" text-anchor="middle" pointer-events="none" x="0" y="5" font-size="10px" fill="#2A2C34" font-family="Helvetica Neue, Helvetica, Arial, sans-serif"> Norway</text></g><g class="node" aria-label="graph-node549" transform="translate(-444.51416354556636,-268.6936036731295)"><circle class="b-outline" cx="0" cy="0" r="32.5" fill="#57C7E3" stroke="#23b3d7" stroke-width="2px"/><text class="caption" text-anchor="middle" pointer-events="none" x="0" y="0" font-size="10px" fill="#2A2C34" font-family="Helvetica Neue, Helvetica, Arial, sans-serif"> United</text><text class="caption" text-anchor="middle" pointer-events="none" x="0" y="10" font-size="10px" fill="#2A2C34" font-family="Helvetica Neue, Helvetica, Arial, sans-serif"> Kingdom</text></g><g class="node" aria-label="graph-node490" transform="translate(362.4315191874107,480.3003138647991)"><circle class="b-outline" cx="0" cy="0" r="32.5" fill="#57C7E3" stroke="#23b3d7" stroke-width="2px"/><text class="caption" text-anchor="middle" pointer-events="none" x="0" y="5" font-size="10px" fill="#2A2C34" font-family="Helvetica Neue, Helvetica, Arial, sans-serif"> Philippines</text></g><g class="node" aria-label="graph-node492" transform="translate(-281.6902115607553,-188.3486146844276)"><circle class="b-outline" cx="0" cy="0" r="32.5" fill="#57C7E3" stroke="#23b3d7" stroke-width="2px"/><text class="caption" text-anchor="middle" pointer-events="none" x="0" y="5" font-size="10px" fill="#2A2C34" font-family="Helvetica Neue, Helvetica, Arial, sans-serif"> Poland</text></g><g class="node" aria-label="graph-node493" transform="translate(552.9599581988995,-111.26640089104941)"><circle class="b-outline" cx="0" cy="0" r="32.5" fill="#57C7E3" stroke="#23b3d7" stroke-width="2px"/><text class="caption" text-anchor="middle" pointer-events="none" x="0" y="5" font-size="10px" fill="#2A2C34" font-family="Helvetica Neue, Helvetica, Arial, sans-serif"> Portugal</text></g><g class="node" aria-label="graph-node523" transform="translate(379.53833386157555,-122.75437555877284)"><circle class="b-outline" cx="0" cy="0" r="32.5" fill="#57C7E3" stroke="#23b3d7" stroke-width="2px"/><text class="caption" text-anchor="middle" pointer-events="none" x="0" y="5" font-size="10px" fill="#2A2C34" font-family="Helvetica Neue, Helvetica, Arial, sans-serif"> Spain</text></g><g class="node" aria-label="graph-node495" transform="translate(611.4175314863908,159.09520001847108)"><circle class="b-outline" cx="0" cy="0" r="32.5" fill="#57C7E3" stroke="#23b3d7" stroke-width="2px"/><text class="caption" text-anchor="middle" pointer-events="none" x="0" y="5" font-size="10px" fill="#2A2C34" font-family="Helvetica Neue, Helvetica, Arial, sans-serif"> Qatar</text></g><g class="node" aria-label="graph-node496" transform="translate(183.45827305274653,-317.8816495922096)"><circle class="b-outline" cx="0" cy="0" r="32.5" fill="#57C7E3" stroke="#23b3d7" stroke-width="2px"/><text class="caption" text-anchor="middle" pointer-events="none" x="0" y="5" font-size="10px" fill="#2A2C34" font-family="Helvetica Neue, Helvetica, Arial, sans-serif"> Romania</text></g><g class="node" aria-label="graph-node497" transform="translate(92.93783745861339,157.90634004948743)"><circle class="b-outline" cx="0" cy="0" r="32.5" fill="#57C7E3" stroke="#23b3d7" stroke-width="2px"/><text class="caption" text-anchor="middle" pointer-events="none" x="0" y="5" font-size="10px" fill="#2A2C34" font-family="Helvetica Neue, Helvetica, Arial, sans-serif"> Russia</text></g><g class="node" aria-label="graph-node507" transform="translate(318.9621680372177,-445.21843850762735)"><circle class="b-outline" cx="0" cy="0" r="32.5" fill="#57C7E3" stroke="#23b3d7" stroke-width="2px"/><text class="caption" text-anchor="middle" pointer-events="none" x="0" y="5" font-size="10px" fill="#2A2C34" font-family="Helvetica Neue, Helvetica, Arial, sans-serif"> San Marino</text></g><g class="node" aria-label="graph-node509" transform="translate(-54.64310769301929,265.28652584804945)"><circle class="b-outline" cx="0" cy="0" r="32.5" fill="#57C7E3" stroke="#23b3d7" stroke-width="2px"/><text class="caption" text-anchor="middle" pointer-events="none" x="0" y="5" font-size="10px" fill="#2A2C34" font-family="Helvetica Neue, Helvetica, Arial, sans-serif"> Saudi Arabia</text></g><g class="node" aria-label="graph-node511" transform="translate(-268.2584724647743,-9.801603706422213)"><circle class="b-outline" cx="0" cy="0" r="32.5" fill="#57C7E3" stroke="#23b3d7" stroke-width="2px"/><text class="caption" text-anchor="middle" pointer-events="none" x="0" y="5" font-size="10px" fill="#2A2C34" font-family="Helvetica Neue, Helvetica, Arial, sans-serif"> Serbia</text></g><g class="node" aria-label="graph-node512" transform="translate(-367.7642123688817,485.8773043736052)"><circle class="b-outline" cx="0" cy="0" r="32.5" fill="#57C7E3" stroke="#23b3d7" stroke-width="2px"/><text class="caption" text-anchor="middle" pointer-events="none" x="0" y="5" font-size="10px" fill="#2A2C34" font-family="Helvetica Neue, Helvetica, Arial, sans-serif"> Seychelles</text></g><g class="node" aria-label="graph-node548" transform="translate(-449.41963877336195,356.01114297885186)"><circle class="b-outline" cx="0" cy="0" r="32.5" fill="#57C7E3" stroke="#23b3d7" stroke-width="2px"/><text class="caption" text-anchor="middle" pointer-events="none" x="0" y="0" font-size="10px" fill="#2A2C34" font-family="Helvetica Neue, Helvetica, Arial, sans-serif"> United Arab</text><text class="caption" text-anchor="middle" pointer-events="none" x="0" y="10" font-size="10px" fill="#2A2C34" font-family="Helvetica Neue, Helvetica, Arial, sans-serif"> Emirates</text></g><g class="node" aria-label="graph-node517" transform="translate(-143.78805439139268,23.929751725161697)"><circle class="b-outline" cx="0" cy="0" r="32.5" fill="#57C7E3" stroke="#23b3d7" stroke-width="2px"/><text class="caption" text-anchor="middle" pointer-events="none" x="0" y="5" font-size="10px" fill="#2A2C34" font-family="Helvetica Neue, Helvetica, Arial, sans-serif"> Slovenia</text></g><g class="node" aria-label="graph-node520" transform="translate(-164.27688333215485,538.297298773074)"><circle class="b-outline" cx="0" cy="0" r="32.5" fill="#57C7E3" stroke="#23b3d7" stroke-width="2px"/><text class="caption" text-anchor="middle" pointer-events="none" x="0" y="5" font-size="10px" fill="#2A2C34" font-family="Helvetica Neue, Helvetica, Arial, sans-serif"> South Africa</text></g><g class="node" aria-label="graph-node529" transform="translate(62.80980965794484,-65.25590752508916)"><circle class="b-outline" cx="0" cy="0" r="32.5" fill="#57C7E3" stroke="#23b3d7" stroke-width="2px"/><text class="caption" text-anchor="middle" pointer-events="none" x="0" y="5" font-size="10px" fill="#2A2C34" font-family="Helvetica Neue, Helvetica, Arial, sans-serif"> Sweden</text></g><g class="node" aria-label="graph-node530" transform="translate(-37.81820662893921,37.821355211023224)"><circle class="b-outline" cx="0" cy="0" r="32.5" fill="#57C7E3" stroke="#23b3d7" stroke-width="2px"/><text class="caption" text-anchor="middle" pointer-events="none" x="0" y="5" font-size="10px" fill="#2A2C34" font-family="Helvetica Neue, Helvetica, Arial, sans-serif"> Switzerland</text></g><g class="node" aria-label="graph-node532" transform="translate(349.20953179805565,292.4049533564255)"><circle class="b-outline" cx="0" cy="0" r="32.5" fill="#57C7E3" stroke="#23b3d7" stroke-width="2px"/><text class="caption" text-anchor="middle" pointer-events="none" x="0" y="5" font-size="10px" fill="#2A2C34" font-family="Helvetica Neue, Helvetica, Arial, sans-serif"> Taiwan</text></g><g class="node" aria-label="graph-node535" transform="translate(-641.3842360315903,-157.8826915273355)"><circle class="b-outline" cx="0" cy="0" r="32.5" fill="#57C7E3" stroke="#23b3d7" stroke-width="2px"/><text class="caption" text-anchor="middle" pointer-events="none" x="0" y="5" font-size="10px" fill="#2A2C34" font-family="Helvetica Neue, Helvetica, Arial, sans-serif"> Thailand</text></g><g class="node" aria-label="graph-node556" transform="translate(-789.0659153607562,180.47780274639484)"><circle class="b-outline" cx="0" cy="0" r="32.5" fill="#57C7E3" stroke="#23b3d7" stroke-width="2px"/><text class="caption" text-anchor="middle" pointer-events="none" x="0" y="5" font-size="10px" fill="#2A2C34" font-family="Helvetica Neue, Helvetica, Arial, sans-serif"> Vietnam</text></g></g></svg>