<svg xmlns="http://www.w3.org/2000/svg" width="1409.04443359375" height="1321.2933349609375" viewBox="-916.3616943359375 -669.0670166015625 1409.04443359375 1321.2933349609375"><title>Neo4j Graph Visualization</title><desc>Created using Neo4j (http://www.neo4j.com/)</desc><g class="layer relationships"><g class="relationship" transform="translate(-141.5867165618298 249.95909473711652) rotate(464.71751451495317)"><path class="b-outline" fill="#A5ABB6" stroke="none" d="M 30.745541741638416,10.826433531554594 L 32.03963696715102,5.996804400109253 A 348.1975241648321 348.1975241648321 0 0 0 103.20596735893884,17.34509750387889 L 102.93379683783766,22.33768432910722 A 353.1975241648321 353.1975241648321 0 0 1 30.745541741638416,10.826433531554594 Z M 133.6082348874093,22.675755156978994 L 133.44616626538362,17.67838247108142 A 348.1975241648321 348.1975241648321 0 0 0 204.8453243832209,7.901340082597949 L 204.13292239038947,4.987153506448474 L 216.12434348979517,7.717688255673913 L 206.7450630307714,15.672504285663216 L 206.03266103793996,12.758317709513742 A 353.1975241648321 353.1975241648321 0 0 1 133.6082348874093,22.675755156978994"/><text text-anchor="middle" pointer-events="none" font-size="8px" fill="#000000" x="118.29489528421003" y="23.34004998710111" transform="rotate(180 118.29489528421003 20.34004998710111)" font-family="Helvetica Neue, Helvetica, Arial, sans-serif">74.678</text></g><g class="relationship" transform="translate(-166.8733897920028 -360.33000108912574) rotate(312.2096348824375)"><path class="b-outline" fill="#A5ABB6" stroke="none" d="M 32.5 2.5 L 126.18959912120715 2.5 L 126.18959912120715 -2.5 L 32.5 -2.5 Z M 156.65834912120715 2.5 L 250.3479482424143 2.5 L 250.3479482424143 5.5 L 261.3479482424143 0 L 250.3479482424143 -5.5 L 250.3479482424143 -2.5 L 156.65834912120715 -2.5 Z"/><text text-anchor="middle" pointer-events="none" font-size="8px" fill="#000000" x="141.42397412120715" y="3" font-family="Helvetica Neue, Helvetica, Arial, sans-serif">103.65</text></g><g class="relationship" transform="translate(147.89928251836096 -230.06327887154225) rotate(369.2285478504466)"><path class="b-outline" fill="#A5ABB6" stroke="none" d="M 32.5 2.5 L 94.7552487304636 2.5 L 94.7552487304636 -2.5 L 32.5 -2.5 Z M 129.67321748046362 2.5 L 191.9284662109272 2.5 L 191.9284662109272 5.5 L 202.9284662109272 0 L 191.9284662109272 -5.5 L 191.9284662109272 -2.5 L 129.67321748046362 -2.5 Z"/><text text-anchor="middle" pointer-events="none" font-size="8px" fill="#000000" x="112.2142331054636" y="3" font-family="Helvetica Neue, Helvetica, Arial, sans-serif">100.752</text></g><g class="relationship" transform="translate(-166.8733897920028 -360.33000108912574) rotate(229.33119878429284)"><path class="b-outline" fill="#A5ABB6" stroke="none" d="M 32.5 2.5 L 105.94841859420212 2.5 L 105.94841859420212 -2.5 L 32.5 -2.5 Z M 131.9679498442021 2.5 L 205.41636843840425 2.5 L 205.41636843840425 5.5 L 216.41636843840425 0 L 205.41636843840425 -5.5 L 205.41636843840425 -2.5 L 131.9679498442021 -2.5 Z"/><text text-anchor="middle" pointer-events="none" font-size="8px" fill="#000000" x="118.95818421920212" y="3" transform="rotate(180 118.95818421920212 0)" font-family="Helvetica Neue, Helvetica, Arial, sans-serif">5.506</text></g><g class="relationship" transform="translate(-755.3056560507422 156.2124155429194) rotate(500.00851544169996)"><path class="b-outline" fill="#A5ABB6" stroke="none" d="M 32.5 2.5 L 60.553649276861975 2.5 L 60.553649276861975 -2.5 L 32.5 -2.5 Z M 91.02239927686198 2.5 L 119.07604855372395 2.5 L 119.07604855372395 5.5 L 130.07604855372395 0 L 119.07604855372395 -5.5 L 119.07604855372395 -2.5 L 91.02239927686198 -2.5 Z"/><text text-anchor="middle" pointer-events="none" font-size="8px" fill="#000000" x="75.78802427686198" y="3" transform="rotate(180 75.78802427686198 0)" font-family="Helvetica Neue, Helvetica, Arial, sans-serif">434.69</text></g><g class="relationship" transform="translate(-502.07121275685915 416.26601051274037) rotate(423.3855782660821)"><path class="b-outline" fill="#A5ABB6" stroke="none" d="M 32.5 2.5 L 93.04001032929905 2.5 L 93.04001032929905 -2.5 L 32.5 -2.5 Z M 119.05954157929905 2.5 L 179.5995519085981 2.5 L 179.5995519085981 5.5 L 190.5995519085981 0 L 179.5995519085981 -5.5 L 179.5995519085981 -2.5 L 119.05954157929905 -2.5 Z"/><text text-anchor="middle" pointer-events="none" font-size="8px" fill="#000000" x="106.04977595429905" y="3" font-family="Helvetica Neue, Helvetica, Arial, sans-serif">0.071</text></g><g class="relationship" transform="translate(-204.51444949857358 489.5269637780805) rotate(284.71751451495317)"><path class="b-outline" fill="#A5ABB6" stroke="none" d="M 30.745541741638416,10.826433531554594 L 32.03963696715102,5.996804400109253 A 348.1975241648321 348.1975241648321 0 0 0 103.20596735893884,17.34509750387889 L 102.93379683783766,22.33768432910722 A 353.1975241648321 353.1975241648321 0 0 1 30.745541741638416,10.826433531554594 Z M 133.6082348874093,22.675755156978994 L 133.44616626538362,17.67838247108142 A 348.1975241648321 348.1975241648321 0 0 0 204.8453243832209,7.901340082597949 L 204.13292239038947,4.987153506448474 L 216.12434348979517,7.717688255673913 L 206.7450630307714,15.672504285663216 L 206.03266103793996,12.758317709513742 A 353.1975241648321 353.1975241648321 0 0 1 133.6082348874093,22.675755156978994"/><text text-anchor="middle" pointer-events="none" font-size="8px" fill="#000000" x="118.29489528421003" y="23.34004998710111" font-family="Helvetica Neue, Helvetica, Arial, sans-serif">216.37</text></g><g class="relationship" transform="translate(-755.3056560507422 156.2124155429194) rotate(368.6849006997528)"><path class="b-outline" fill="#A5ABB6" stroke="none" d="M 30.745541741638416,10.826433531554594 L 32.03963696715102,5.996804400109253 A 1072.9732023005743 1072.9732023005743 0 0 0 289.7101715255061,42.37040564847666 L 289.6168077535185,47.369533893089056 A 1077.9732023005743 1077.9732023005743 0 0 1 30.745541741638416,10.826433531554594 Z M 320.155052444644,47.50721843946167 L 320.1067696310488,42.507451567905264 A 1072.9732023005743 1072.9732023005743 0 0 0 578.0948097808263,8.45874546855138 L 577.3445134847074,5.554084478344385 L 589.3704803250176,8.128209874621293 L 580.09559990381,16.204508109103365 L 579.3453036076911,13.299847118896372 A 1077.9732023005743 1077.9732023005743 0 0 1 320.155052444644,47.50721843946167"/><text text-anchor="middle" pointer-events="none" font-size="8px" fill="#000000" x="304.8967138764276" y="48.046549051518696" font-family="Helvetica Neue, Helvetica, Arial, sans-serif">216.37</text></g><g class="relationship" transform="translate(-166.8733897920028 -360.33000108912574) rotate(180.54369095758506)"><path class="b-outline" fill="#A5ABB6" stroke="none" d="M 32.5 2.5 L 143.13877712890783 2.5 L 143.13877712890783 -2.5 L 32.5 -2.5 Z M 173.60752712890783 2.5 L 284.24630425781567 2.5 L 284.24630425781567 5.5 L 295.24630425781567 0 L 284.24630425781567 -5.5 L 284.24630425781567 -2.5 L 173.60752712890783 -2.5 Z"/><text text-anchor="middle" pointer-events="none" font-size="8px" fill="#000000" x="158.37315212890783" y="3" transform="rotate(180 158.37315212890783 0)" font-family="Helvetica Neue, Helvetica, Arial, sans-serif">160.32</text></g><g class="relationship" transform="translate(-141.5867165618298 249.95909473711652) rotate(267.62736804560336)"><path class="b-outline" fill="#A5ABB6" stroke="none" d="M 32.5 2.5 L 286.89660150225143 2.5 L 286.89660150225143 -2.5 L 32.5 -2.5 Z M 312.91613275225143 2.5 L 567.3127342545029 2.5 L 567.3127342545029 5.5 L 578.3127342545029 0 L 567.3127342545029 -5.5 L 567.3127342545029 -2.5 L 312.91613275225143 -2.5 Z"/><text text-anchor="middle" pointer-events="none" font-size="8px" fill="#000000" x="299.90636712725143" y="3" transform="rotate(180 299.90636712725143 0)" font-family="Helvetica Neue, Helvetica, Arial, sans-serif">177.5</text></g><g class="relationship" transform="translate(147.89928251836096 -230.06327887154225) rotate(202.4819149289712)"><path class="b-outline" fill="#A5ABB6" stroke="none" d="M 30.745541741638416,-10.826433531554594 L 32.03963696715102,-5.996804400109253 A 529.5778180200716 529.5778180200716 0 0 1 151.86700739748412,-23.761121980509074 L 151.7042602605143,-28.758472615536448 A 534.5778180200716 534.5778180200716 0 0 0 30.745541741638416,-10.826433531554594 Z M 177.84258274609306,-28.970310256546895 L 177.76085357293098,-23.97097826694528 A 529.5778180200716 529.5778180200716 0 0 1 297.8604062495591,-8.151144822202731 L 297.131018010095,-5.241163242169728 L 309.1381622425669,-7.901705927528324 L 299.80544155479686,-15.911095702290742 L 299.07605331533273,-13.00111412225774 A 534.5778180200716 534.5778180200716 0 0 0 177.84258274609306,-28.970310256546895"/><text text-anchor="middle" pointer-events="none" font-size="8px" fill="#000000" x="164.79238708210926" y="-23.52425767803254" transform="rotate(180 164.79238708210926 -26.52425767803254)" font-family="Helvetica Neue, Helvetica, Arial, sans-serif">177.5</text></g><g class="relationship" transform="translate(-166.8733897920028 -360.33000108912574) rotate(286.12358705285)"><path class="b-outline" fill="#A5ABB6" stroke="none" d="M 32.5 2.5 L 121.25446475037873 2.5 L 121.25446475037873 -2.5 L 32.5 -2.5 Z M 151.12946475037873 2.5 L 239.88392950075746 2.5 L 239.88392950075746 5.5 L 250.88392950075746 0 L 239.88392950075746 -5.5 L 239.88392950075746 -2.5 L 151.12946475037873 -2.5 Z"/><text text-anchor="middle" pointer-events="none" font-size="8px" fill="#000000" x="136.19196475037873" y="3" font-family="Helvetica Neue, Helvetica, Arial, sans-serif">11.389</text></g><g class="relationship" transform="translate(-141.5867165618298 249.95909473711652) rotate(280.3018355446082)"><path class="b-outline" fill="#A5ABB6" stroke="none" d="M 32.5 2.5 L 109.24868615654884 2.5 L 109.24868615654884 -2.5 L 32.5 -2.5 Z M 135.26821740654884 2.5 L 212.01690356309769 2.5 L 212.01690356309769 5.5 L 223.01690356309769 0 L 212.01690356309769 -5.5 L 212.01690356309769 -2.5 L 135.26821740654884 -2.5 Z"/><text text-anchor="middle" pointer-events="none" font-size="8px" fill="#000000" x="122.25845178154884" y="3" font-family="Helvetica Neue, Helvetica, Arial, sans-serif">355.4</text></g><g class="relationship" transform="translate(293.3223917674871 -502.8028549492054) rotate(371.9884477592838)"><path class="b-outline" fill="#A5ABB6" stroke="none" d="M 32.5 2.5 L 64.73606611488411 2.5 L 64.73606611488411 -2.5 L 32.5 -2.5 Z M 90.75559736488411 2.5 L 122.99166347976822 2.5 L 122.99166347976822 5.5 L 133.99166347976822 0 L 122.99166347976822 -5.5 L 122.99166347976822 -2.5 L 90.75559736488411 -2.5 Z"/><text text-anchor="middle" pointer-events="none" font-size="8px" fill="#000000" x="77.74583173988411" y="3" font-family="Helvetica Neue, Helvetica, Arial, sans-serif">1.126</text></g><g class="relationship" transform="translate(-141.5867165618298 249.95909473711652) rotate(515.2341034610739)"><path class="b-outline" fill="#A5ABB6" stroke="none" d="M 32.5 2.5 L 175.53979536418666 2.5 L 175.53979536418666 -2.5 L 32.5 -2.5 Z M 210.45776411418666 2.5 L 353.4975594783733 2.5 L 353.4975594783733 5.5 L 364.4975594783733 0 L 353.4975594783733 -5.5 L 353.4975594783733 -2.5 L 210.45776411418666 -2.5 Z"/><text text-anchor="middle" pointer-events="none" font-size="8px" fill="#000000" x="192.99877973918666" y="3" transform="rotate(180 192.99877973918666 0)" font-family="Helvetica Neue, Helvetica, Arial, sans-serif">107.568</text></g><g class="relationship" transform="translate(-141.5867165618298 249.95909473711652) rotate(433.77910412256557)"><path class="b-outline" fill="#A5ABB6" stroke="none" d="M 32.5 2.5 L 99.95476130652901 2.5 L 99.95476130652901 -2.5 L 32.5 -2.5 Z M 130.423511306529 2.5 L 197.87827261305802 2.5 L 197.87827261305802 5.5 L 208.87827261305802 0 L 197.87827261305802 -5.5 L 197.87827261305802 -2.5 L 130.423511306529 -2.5 Z"/><text text-anchor="middle" pointer-events="none" font-size="8px" fill="#000000" x="115.18913630652901" y="3" font-family="Helvetica Neue, Helvetica, Arial, sans-serif">58.783</text></g><g class="relationship" transform="translate(-478.1980850805495 -260.9565376452496) rotate(525.942723369251)"><path class="b-outline" fill="#A5ABB6" stroke="none" d="M 32.5 2.5 L 111.92176419853939 2.5 L 111.92176419853939 -2.5 L 32.5 -2.5 Z M 146.8397329485394 2.5 L 226.26149714707879 2.5 L 226.26149714707879 5.5 L 237.26149714707879 0 L 226.26149714707879 -5.5 L 226.26149714707879 -2.5 L 146.8397329485394 -2.5 Z"/><text text-anchor="middle" pointer-events="none" font-size="8px" fill="#000000" x="129.3807485735394" y="3" transform="rotate(180 129.3807485735394 0)" font-family="Helvetica Neue, Helvetica, Arial, sans-serif">148.039</text></g><g class="relationship" transform="translate(-166.8733897920028 -360.33000108912574) rotate(500.7939074433159)"><path class="b-outline" fill="#A5ABB6" stroke="none" d="M 32.5 2.5 L 109.28154076972251 2.5 L 109.28154076972251 -2.5 L 32.5 -2.5 Z M 144.1995095197225 2.5 L 220.98105028944502 2.5 L 220.98105028944502 5.5 L 231.98105028944502 0 L 220.98105028944502 -5.5 L 220.98105028944502 -2.5 L 144.1995095197225 -2.5 Z"/><text text-anchor="middle" pointer-events="none" font-size="8px" fill="#000000" x="126.74052514472251" y="3" transform="rotate(180 126.74052514472251 0)" font-family="Helvetica Neue, Helvetica, Arial, sans-serif">102.069</text></g><g class="relationship" transform="translate(-141.5867165618298 249.95909473711652) rotate(398.26113699271696)"><path class="b-outline" fill="#A5ABB6" stroke="none" d="M 32.5 2.5 L 98.30624560052095 2.5 L 98.30624560052095 -2.5 L 32.5 -2.5 Z M 133.22421435052095 2.5 L 199.0304599510419 2.5 L 199.0304599510419 5.5 L 210.0304599510419 0 L 199.0304599510419 -5.5 L 199.0304599510419 -2.5 L 133.22421435052095 -2.5 Z"/><text text-anchor="middle" pointer-events="none" font-size="8px" fill="#000000" x="115.76522997552095" y="3" font-family="Helvetica Neue, Helvetica, Arial, sans-serif">244.834</text></g><g class="relationship" transform="translate(-141.5867165618298 249.95909473711652) rotate(327.405510327125)"><path class="b-outline" fill="#A5ABB6" stroke="none" d="M 32.5 2.5 L 114.4934475471097 2.5 L 114.4934475471097 -2.5 L 32.5 -2.5 Z M 140.5129787971097 2.5 L 222.5064263442194 2.5 L 222.5064263442194 5.5 L 233.5064263442194 0 L 222.5064263442194 -5.5 L 222.5064263442194 -2.5 L 140.5129787971097 -2.5 Z"/><text text-anchor="middle" pointer-events="none" font-size="8px" fill="#000000" x="127.5032131721097" y="3" font-family="Helvetica Neue, Helvetica, Arial, sans-serif">3.977</text></g><g class="relationship" transform="translate(-141.5867165618298 249.95909473711652) rotate(298.773105156057)"><path class="b-outline" fill="#A5ABB6" stroke="none" d="M 32.5 2.5 L 100.97038250973438 2.5 L 100.97038250973438 -2.5 L 32.5 -2.5 Z M 118.09147625973438 2.5 L 186.56185876946876 2.5 L 186.56185876946876 5.5 L 197.56185876946876 0 L 186.56185876946876 -5.5 L 186.56185876946876 -2.5 L 118.09147625973438 -2.5 Z"/><text text-anchor="middle" pointer-events="none" font-size="8px" fill="#000000" x="109.53092938473438" y="3" font-family="Helvetica Neue, Helvetica, Arial, sans-serif">5.9</text></g><g class="relationship" transform="translate(-141.5867165618298 249.95909473711652) rotate(345.3939756988766)"><path class="b-outline" fill="#A5ABB6" stroke="none" d="M 32.5 2.5 L 92.9849482338155 2.5 L 92.9849482338155 -2.5 L 32.5 -2.5 Z M 127.9029169838155 2.5 L 188.387865217631 2.5 L 188.387865217631 5.5 L 199.387865217631 0 L 188.387865217631 -5.5 L 188.387865217631 -2.5 L 127.9029169838155 -2.5 Z"/><text text-anchor="middle" pointer-events="none" font-size="8px" fill="#000000" x="110.4439326088155" y="3" font-family="Helvetica Neue, Helvetica, Arial, sans-serif">174.526</text></g><g class="relationship" transform="translate(-141.5867165618298 249.95909473711652) rotate(239.8445510075042)"><path class="b-outline" fill="#A5ABB6" stroke="none" d="M 32.5 2.5 L 121.11053486643536 2.5 L 121.11053486643536 -2.5 L 32.5 -2.5 Z M 147.13006611643536 2.5 L 235.74060098287072 2.5 L 235.74060098287072 5.5 L 246.74060098287072 0 L 235.74060098287072 -5.5 L 235.74060098287072 -2.5 L 147.13006611643536 -2.5 Z"/><text text-anchor="middle" pointer-events="none" font-size="8px" fill="#000000" x="134.12030049143536" y="3" transform="rotate(180 134.12030049143536 0)" font-family="Helvetica Neue, Helvetica, Arial, sans-serif">6.854</text></g><g class="relationship" transform="translate(205.6123276155488 304.3020832905738) rotate(368.22256660196393)"><path class="b-outline" fill="#A5ABB6" stroke="none" d="M 32.5 2.5 L 73.11562729486712 2.5 L 73.11562729486712 -2.5 L 32.5 -2.5 Z M 99.13515854486712 2.5 L 139.75078583973425 2.5 L 139.75078583973425 5.5 L 150.75078583973425 0 L 139.75078583973425 -5.5 L 139.75078583973425 -2.5 L 99.13515854486712 -2.5 Z"/><text text-anchor="middle" pointer-events="none" font-size="8px" fill="#000000" x="86.12539291986712" y="3" font-family="Helvetica Neue, Helvetica, Arial, sans-serif">66.04</text></g><g class="relationship" transform="translate(70.3083140952151 25.87808027980111) rotate(348.6918990027566)"><path class="b-outline" fill="#A5ABB6" stroke="none" d="M 32.5 2.5 L 94.21008334002116 2.5 L 94.21008334002116 -2.5 L 32.5 -2.5 Z M 111.33117709002116 2.5 L 173.0412604300423 2.5 L 173.0412604300423 5.5 L 184.0412604300423 0 L 173.0412604300423 -5.5 L 173.0412604300423 -2.5 L 111.33117709002116 -2.5 Z"/><text text-anchor="middle" pointer-events="none" font-size="8px" fill="#000000" x="102.77063021502116" y="3" font-family="Helvetica Neue, Helvetica, Arial, sans-serif">4.7</text></g><g class="relationship" transform="translate(-141.5867165618298 249.95909473711652) rotate(224.44588104974451)"><path class="b-outline" fill="#A5ABB6" stroke="none" d="M 32.5 2.5 L 78.37698550835279 2.5 L 78.37698550835279 -2.5 L 32.5 -2.5 Z M 104.39651675835279 2.5 L 150.27350226670558 2.5 L 150.27350226670558 5.5 L 161.27350226670558 0 L 150.27350226670558 -5.5 L 150.27350226670558 -2.5 L 104.39651675835279 -2.5 Z"/><text text-anchor="middle" pointer-events="none" font-size="8px" fill="#000000" x="91.38675113335279" y="3" transform="rotate(180 91.38675113335279 0)" font-family="Helvetica Neue, Helvetica, Arial, sans-serif">1.121</text></g><g class="relationship" transform="translate(-166.8733897920028 -360.33000108912574) rotate(382.4819149289712)"><path class="b-outline" fill="#A5ABB6" stroke="none" d="M 30.745541741638416,-10.826433531554594 L 32.03963696715102,-5.996804400109253 A 529.5778180200716 529.5778180200716 0 0 1 149.65418081493368,-23.684426431750126 L 149.47054131326072,-28.681052947052763 A 534.5778180200716 534.5778180200716 0 0 0 30.745541741638416,-10.826433531554594 Z M 180.07726308999787,-28.929104662836266 L 179.97463256002138,-23.93015807637255 A 529.5778180200716 529.5778180200716 0 0 1 297.8604062495591,-8.151144822202731 L 297.131018010095,-5.241163242169728 L 309.1381622425669,-7.901705927528324 L 299.80544155479686,-15.911095702290742 L 299.07605331533273,-13.00111412225774 A 534.5778180200716 534.5778180200716 0 0 0 180.07726308999787,-28.929104662836266"/><text text-anchor="middle" pointer-events="none" font-size="8px" fill="#000000" x="164.79238708210926" y="-23.52425767803254" font-family="Helvetica Neue, Helvetica, Arial, sans-serif">120.24</text></g><g class="relationship" transform="translate(-141.5867165618298 249.95909473711652) rotate(391.179226451741)"><path class="b-outline" fill="#A5ABB6" stroke="none" d="M 32.5 2.5 L 178.7311607887256 2.5 L 178.7311607887256 -2.5 L 32.5 -2.5 Z M 208.6061607887256 2.5 L 354.8373215774512 2.5 L 354.8373215774512 5.5 L 365.8373215774512 0 L 354.8373215774512 -5.5 L 354.8373215774512 -2.5 L 208.6061607887256 -2.5 Z"/><text text-anchor="middle" pointer-events="none" font-size="8px" fill="#000000" x="193.6686607887256" y="3" font-family="Helvetica Neue, Helvetica, Arial, sans-serif">11.315</text></g><g class="relationship" transform="translate(92.75133976197844 -485.28845569965256) rotate(355.00943877177565)"><path class="b-outline" fill="#A5ABB6" stroke="none" d="M 32.5 2.5 L 79.93277590294996 2.5 L 79.93277590294996 -2.5 L 32.5 -2.5 Z M 110.40152590294996 2.5 L 157.8343018058999 2.5 L 157.8343018058999 5.5 L 168.8343018058999 0 L 157.8343018058999 -5.5 L 157.8343018058999 -2.5 L 110.40152590294996 -2.5 Z"/><text text-anchor="middle" pointer-events="none" font-size="8px" fill="#000000" x="95.16715090294996" y="3" font-family="Helvetica Neue, Helvetica, Arial, sans-serif">26.171</text></g><g class="relationship" transform="translate(-141.5867165618298 249.95909473711652) rotate(498.4657731099028)"><path class="b-outline" fill="#A5ABB6" stroke="none" d="M 32.5 2.5 L 81.44716688313821 2.5 L 81.44716688313821 -2.5 L 32.5 -2.5 Z M 111.91591688313821 2.5 L 160.86308376627642 2.5 L 160.86308376627642 5.5 L 171.86308376627642 0 L 160.86308376627642 -5.5 L 160.86308376627642 -2.5 L 111.91591688313821 -2.5 Z"/><text text-anchor="middle" pointer-events="none" font-size="8px" fill="#000000" x="96.68154188313821" y="3" transform="rotate(180 96.68154188313821 0)" font-family="Helvetica Neue, Helvetica, Arial, sans-serif">36.687</text></g><g class="relationship" transform="translate(-166.8733897920028 -360.33000108912574) rotate(478.36683828074547)"><path class="b-outline" fill="#A5ABB6" stroke="none" d="M 32.5 2.5 L 75.36774971893067 2.5 L 75.36774971893067 -2.5 L 32.5 -2.5 Z M 105.83649971893067 2.5 L 148.70424943786134 2.5 L 148.70424943786134 5.5 L 159.70424943786134 0 L 148.70424943786134 -5.5 L 148.70424943786134 -2.5 L 105.83649971893067 -2.5 Z"/><text text-anchor="middle" pointer-events="none" font-size="8px" fill="#000000" x="90.60212471893067" y="3" transform="rotate(180 90.60212471893067 0)" font-family="Helvetica Neue, Helvetica, Arial, sans-serif">95.175</text></g><g class="relationship" transform="translate(-573.6774171316031 -474.6576391483876) rotate(303.08754673492587)"><path class="b-outline" fill="#A5ABB6" stroke="none" d="M 32.5 2.5 L 63.55641897961729 2.5 L 63.55641897961729 -2.5 L 32.5 -2.5 Z M 94.02516897961729 2.5 L 125.08158795923458 2.5 L 125.08158795923458 5.5 L 136.08158795923458 0 L 125.08158795923458 -5.5 L 125.08158795923458 -2.5 L 94.02516897961729 -2.5 Z"/><text text-anchor="middle" pointer-events="none" font-size="8px" fill="#000000" x="78.79079397961729" y="3" font-family="Helvetica Neue, Helvetica, Arial, sans-serif">39.829</text></g><g class="relationship" transform="translate(-755.3056560507422 156.2124155429194) rotate(231.59166705575848)"><path class="b-outline" fill="#A5ABB6" stroke="none" d="M 32.5 2.5 L 50.9271660371779 2.5 L 50.9271660371779 -2.5 L 32.5 -2.5 Z M 76.9466972871779 2.5 L 95.3738633243558 2.5 L 95.3738633243558 5.5 L 106.3738633243558 0 L 95.3738633243558 -5.5 L 95.3738633243558 -2.5 L 76.9466972871779 -2.5 Z"/><text text-anchor="middle" pointer-events="none" font-size="8px" fill="#000000" x="63.9369316621779" y="3" transform="rotate(180 63.9369316621779 0)" font-family="Helvetica Neue, Helvetica, Arial, sans-serif">9.181</text></g><g class="relationship" transform="translate(-166.8733897920028 -360.33000108912574) rotate(401.7239907429805)"><path class="b-outline" fill="#A5ABB6" stroke="none" d="M 32.5 2.5 L 145.86429575089392 2.5 L 145.86429575089392 -2.5 L 32.5 -2.5 Z M 176.33304575089392 2.5 L 289.69734150178783 2.5 L 289.69734150178783 5.5 L 300.69734150178783 0 L 289.69734150178783 -5.5 L 289.69734150178783 -2.5 L 176.33304575089392 -2.5 Z"/><text text-anchor="middle" pointer-events="none" font-size="8px" fill="#000000" x="161.09867075089392" y="3" font-family="Helvetica Neue, Helvetica, Arial, sans-serif">25.091</text></g><g class="relationship" transform="translate(-141.5867165618298 249.95909473711652) rotate(313.3989402464414)"><path class="b-outline" fill="#A5ABB6" stroke="none" d="M 32.5 2.5 L 133.46663428444793 2.5 L 133.46663428444793 -2.5 L 32.5 -2.5 Z M 163.93538428444793 2.5 L 264.90201856889587 2.5 L 264.90201856889587 5.5 L 275.90201856889587 0 L 264.90201856889587 -5.5 L 264.90201856889587 -2.5 L 163.93538428444793 -2.5 Z"/><text text-anchor="middle" pointer-events="none" font-size="8px" fill="#000000" x="148.70100928444793" y="3" font-family="Helvetica Neue, Helvetica, Arial, sans-serif">75.989</text></g><g class="relationship" transform="translate(-166.8733897920028 -360.33000108912574) rotate(258.3672282755657)"><path class="b-outline" fill="#A5ABB6" stroke="none" d="M 32.5 2.5 L 100.09936616687794 2.5 L 100.09936616687794 -2.5 L 32.5 -2.5 Z M 126.11889741687794 2.5 L 193.71826358375588 2.5 L 193.71826358375588 5.5 L 204.71826358375588 0 L 193.71826358375588 -5.5 L 193.71826358375588 -2.5 L 126.11889741687794 -2.5 Z"/><text text-anchor="middle" pointer-events="none" font-size="8px" fill="#000000" x="113.10913179187794" y="3" transform="rotate(180 113.10913179187794 0)" font-family="Helvetica Neue, Helvetica, Arial, sans-serif">0.536</text></g><g class="relationship" transform="translate(-141.5867165618298 249.95909473711652) rotate(485.7384168348119)"><path class="b-outline" fill="#A5ABB6" stroke="none" d="M 32.5 2.5 L 130.39154785295784 2.5 L 130.39154785295784 -2.5 L 32.5 -2.5 Z M 160.86029785295784 2.5 L 258.7518457059157 2.5 L 258.7518457059157 5.5 L 269.7518457059157 0 L 258.7518457059157 -5.5 L 258.7518457059157 -2.5 L 160.86029785295784 -2.5 Z"/><text text-anchor="middle" pointer-events="none" font-size="8px" fill="#000000" x="145.62592285295784" y="3" transform="rotate(180 145.62592285295784 0)" font-family="Helvetica Neue, Helvetica, Arial, sans-serif">38.343</text></g><g class="relationship" transform="translate(-166.8733897920028 -360.33000108912574) rotate(424.6065915691588)"><path class="b-outline" fill="#A5ABB6" stroke="none" d="M 32.5 2.5 L 99.26099630586016 2.5 L 99.26099630586016 -2.5 L 32.5 -2.5 Z M 125.28052755586016 2.5 L 192.04152386172032 2.5 L 192.04152386172032 5.5 L 203.04152386172032 0 L 192.04152386172032 -5.5 L 192.04152386172032 -2.5 L 125.28052755586016 -2.5 Z"/><text text-anchor="middle" pointer-events="none" font-size="8px" fill="#000000" x="112.27076193086016" y="3" font-family="Helvetica Neue, Helvetica, Arial, sans-serif">5.075</text></g><g class="relationship" transform="translate(-626.3019972008749 486.98614310148037) rotate(498.3456735415513)"><path class="b-outline" fill="#A5ABB6" stroke="none" d="M 32.5 2.5 L 58.04908721583878 2.5 L 58.04908721583878 -2.5 L 32.5 -2.5 Z M 84.06861846583878 2.5 L 109.61770568167756 2.5 L 109.61770568167756 5.5 L 120.61770568167756 0 L 109.61770568167756 -5.5 L 109.61770568167756 -2.5 L 84.06861846583878 -2.5 Z"/><text text-anchor="middle" pointer-events="none" font-size="8px" fill="#000000" x="71.05885284083878" y="3" transform="rotate(180 71.05885284083878 0)" font-family="Helvetica Neue, Helvetica, Arial, sans-serif">0.382</text></g><g class="relationship" transform="translate(-141.5867165618298 249.95909473711652) rotate(368.89566212069303)"><path class="b-outline" fill="#A5ABB6" stroke="none" d="M 32.5 2.5 L 154.97869841985576 2.5 L 154.97869841985576 -2.5 L 32.5 -2.5 Z M 185.44744841985576 2.5 L 307.9261468397115 2.5 L 307.9261468397115 5.5 L 318.9261468397115 0 L 307.9261468397115 -5.5 L 307.9261468397115 -2.5 L 185.44744841985576 -2.5 Z"/><text text-anchor="middle" pointer-events="none" font-size="8px" fill="#000000" x="170.21307341985576" y="3" font-family="Helvetica Neue, Helvetica, Arial, sans-serif">97.485</text></g><g class="relationship" transform="translate(-166.8733897920028 -360.33000108912574) rotate(202.22234379823362)"><path class="b-outline" fill="#A5ABB6" stroke="none" d="M 32.5 2.5 L 106.85256108611179 2.5 L 106.85256108611179 -2.5 L 32.5 -2.5 Z M 132.8720923361118 2.5 L 207.22465342222358 2.5 L 207.22465342222358 5.5 L 218.22465342222358 0 L 207.22465342222358 -5.5 L 207.22465342222358 -2.5 L 132.8720923361118 -2.5 Z"/><text text-anchor="middle" pointer-events="none" font-size="8px" fill="#000000" x="119.86232671111179" y="3" transform="rotate(180 119.86232671111179 0)" font-family="Helvetica Neue, Helvetica, Arial, sans-serif">6.673</text></g><g class="relationship" transform="translate(-141.5867165618298 249.95909473711652) rotate(410.9346119560728)"><path class="b-outline" fill="#A5ABB6" stroke="none" d="M 32.5 2.5 L 126.67859319257562 2.5 L 126.67859319257562 -2.5 L 32.5 -2.5 Z M 157.14734319257562 2.5 L 251.32593638515124 2.5 L 251.32593638515124 5.5 L 262.32593638515124 0 L 251.32593638515124 -5.5 L 251.32593638515124 -2.5 L 157.14734319257562 -2.5 Z"/><text text-anchor="middle" pointer-events="none" font-size="8px" fill="#000000" x="141.91296819257562" y="3" font-family="Helvetica Neue, Helvetica, Arial, sans-serif">18.865</text></g><g class="relationship" transform="translate(-494.60493822454487 -363.44000376838517) rotate(234.58828855914192)"><path class="b-outline" fill="#A5ABB6" stroke="none" d="M 32.5 2.5 L 49.72112792774914 2.5 L 49.72112792774914 -2.5 L 32.5 -2.5 Z M 75.74065917774914 2.5 L 92.96178710549827 2.5 L 92.96178710549827 5.5 L 103.96178710549827 0 L 92.96178710549827 -5.5 L 92.96178710549827 -2.5 L 75.74065917774914 -2.5 Z"/><text text-anchor="middle" pointer-events="none" font-size="8px" fill="#000000" x="62.73089355274914" y="3" transform="rotate(180 62.73089355274914 0)" font-family="Helvetica Neue, Helvetica, Arial, sans-serif">64.46</text></g><g class="relationship" transform="translate(-166.8733897920028 -360.33000108912574) rotate(334.29829592577926)"><path class="b-outline" fill="#A5ABB6" stroke="none" d="M 32.5 2.5 L 123.33124856668314 2.5 L 123.33124856668314 -2.5 L 32.5 -2.5 Z M 153.79999856668314 2.5 L 244.6312471333663 2.5 L 244.6312471333663 5.5 L 255.6312471333663 0 L 244.6312471333663 -5.5 L 244.6312471333663 -2.5 L 153.79999856668314 -2.5 Z"/><text text-anchor="middle" pointer-events="none" font-size="8px" fill="#000000" x="138.56562356668314" y="3" font-family="Helvetica Neue, Helvetica, Arial, sans-serif">47.388</text></g><g class="relationship" transform="translate(-166.8733897920028 -360.33000108912574) rotate(358.21293203134667)"><path class="b-outline" fill="#A5ABB6" stroke="none" d="M 32.5 2.5 L 143.8607178426313 2.5 L 143.8607178426313 -2.5 L 32.5 -2.5 Z M 174.3294678426313 2.5 L 285.6901856852626 2.5 L 285.6901856852626 5.5 L 296.6901856852626 0 L 285.6901856852626 -5.5 L 285.6901856852626 -2.5 L 174.3294678426313 -2.5 Z"/><text text-anchor="middle" pointer-events="none" font-size="8px" fill="#000000" x="159.0950928426313" y="3" font-family="Helvetica Neue, Helvetica, Arial, sans-serif">100.91</text></g><g class="relationship" transform="translate(-141.5867165618298 249.95909473711652) rotate(358.53760259159856)"><path class="b-outline" fill="#A5ABB6" stroke="none" d="M 32.5 2.5 L 168.47658773961302 2.5 L 168.47658773961302 -2.5 L 32.5 -2.5 Z M 198.94533773961302 2.5 L 334.92192547922605 2.5 L 334.92192547922605 5.5 L 345.92192547922605 0 L 334.92192547922605 -5.5 L 334.92192547922605 -2.5 L 198.94533773961302 -2.5 Z"/><text text-anchor="middle" pointer-events="none" font-size="8px" fill="#000000" x="183.71096273961302" y="3" font-family="Helvetica Neue, Helvetica, Arial, sans-serif">64.836</text></g><g class="relationship" transform="translate(-141.5867165618298 249.95909473711652) rotate(380.5463881592875)"><path class="b-outline" fill="#A5ABB6" stroke="none" d="M 32.5 2.5 L 125.69110519837412 2.5 L 125.69110519837412 -2.5 L 32.5 -2.5 Z M 156.15985519837412 2.5 L 249.35096039674823 2.5 L 249.35096039674823 5.5 L 260.35096039674823 0 L 249.35096039674823 -5.5 L 249.35096039674823 -2.5 L 156.15985519837412 -2.5 Z"/><text text-anchor="middle" pointer-events="none" font-size="8px" fill="#000000" x="140.92548019837412" y="3" font-family="Helvetica Neue, Helvetica, Arial, sans-serif">65.072</text></g><g class="relationship" transform="translate(-141.5867165618298 249.95909473711652) rotate(529.5049243734761)"><path class="b-outline" fill="#A5ABB6" stroke="none" d="M 32.5 2.5 L 101.76091736396029 2.5 L 101.76091736396029 -2.5 L 32.5 -2.5 Z M 127.78044861396029 2.5 L 197.04136597792058 2.5 L 197.04136597792058 5.5 L 208.04136597792058 0 L 197.04136597792058 -5.5 L 197.04136597792058 -2.5 L 127.78044861396029 -2.5 Z"/><text text-anchor="middle" pointer-events="none" font-size="8px" fill="#000000" x="114.77068298896029" y="3" transform="rotate(180 114.77068298896029 0)" font-family="Helvetica Neue, Helvetica, Arial, sans-serif">2.034</text></g><g class="relationship" transform="translate(-502.07121275685915 416.26601051274037) rotate(510.3486917579714)"><path class="b-outline" fill="#A5ABB6" stroke="none" d="M 32.5 2.5 L 50.7404893876721 2.5 L 50.7404893876721 -2.5 L 32.5 -2.5 Z M 81.2092393876721 2.5 L 99.4497287753442 2.5 L 99.4497287753442 5.5 L 110.4497287753442 0 L 99.4497287753442 -5.5 L 99.4497287753442 -2.5 L 81.2092393876721 -2.5 Z"/><text text-anchor="middle" pointer-events="none" font-size="8px" fill="#000000" x="65.9748643876721" y="3" transform="rotate(180 65.9748643876721 0)" font-family="Helvetica Neue, Helvetica, Arial, sans-serif">57.877</text></g><g class="relationship" transform="translate(-166.8733897920028 -360.33000108912574) rotate(522.2971473367178)"><path class="b-outline" fill="#A5ABB6" stroke="none" d="M 32.5 2.5 L 142.66555701753316 2.5 L 142.66555701753316 -2.5 L 32.5 -2.5 Z M 173.13430701753316 2.5 L 283.2998640350663 2.5 L 283.2998640350663 5.5 L 294.2998640350663 0 L 283.2998640350663 -5.5 L 283.2998640350663 -2.5 L 173.13430701753316 -2.5 Z"/><text text-anchor="middle" pointer-events="none" font-size="8px" fill="#000000" x="157.89993201753316" y="3" transform="rotate(180 157.89993201753316 0)" font-family="Helvetica Neue, Helvetica, Arial, sans-serif">120.24</text></g><g class="relationship" transform="translate(-141.5867165618298 249.95909473711652) rotate(188.6849006997528)"><path class="b-outline" fill="#A5ABB6" stroke="none" d="M 30.745541741638416,10.826433531554594 L 32.03963696715102,5.996804400109253 A 1072.9732023005743 1072.9732023005743 0 0 0 289.7101715255061,42.37040564847666 L 289.6168077535185,47.369533893089056 A 1077.9732023005743 1077.9732023005743 0 0 1 30.745541741638416,10.826433531554594 Z M 320.155052444644,47.50721843946167 L 320.1067696310488,42.507451567905264 A 1072.9732023005743 1072.9732023005743 0 0 0 578.0948097808263,8.45874546855138 L 577.3445134847074,5.554084478344385 L 589.3704803250176,8.128209874621293 L 580.09559990381,16.204508109103365 L 579.3453036076911,13.299847118896372 A 1077.9732023005743 1077.9732023005743 0 0 1 320.155052444644,47.50721843946167"/><text text-anchor="middle" pointer-events="none" font-size="8px" fill="#000000" x="304.8967138764276" y="48.046549051518696" transform="rotate(180 304.8967138764276 45.046549051518696)" font-family="Helvetica Neue, Helvetica, Arial, sans-serif">612.36</text></g><g class="relationship" transform="translate(-141.5867165618298 249.95909473711652) rotate(256.7389070965677)"><path class="b-outline" fill="#A5ABB6" stroke="none" d="M 32.5 2.5 L 78.10112318483121 2.5 L 78.10112318483121 -2.5 L 32.5 -2.5 Z M 112.42534193483121 2.5 L 158.02646511966242 2.5 L 158.02646511966242 5.5 L 169.02646511966242 0 L 158.02646511966242 -5.5 L 158.02646511966242 -2.5 L 112.42534193483121 -2.5 Z"/><text text-anchor="middle" pointer-events="none" font-size="8px" fill="#000000" x="95.26323255983121" y="3" transform="rotate(180 95.26323255983121 0)" font-family="Helvetica Neue, Helvetica, Arial, sans-serif">118.307</text></g></g><g class="layer nodes"><g class="node" aria-label="graph-node13" transform="translate(-204.51444949857358,489.5269637780805)"><circle class="b-outline" cx="0" cy="0" r="32.5" fill="#57C7E3" stroke="#23b3d7" stroke-width="2px"/><text class="caption" text-anchor="middle" pointer-events="none" x="0" y="5" font-size="10px" fill="#2A2C34" font-family="Helvetica Neue, Helvetica, Arial, sans-serif"> Australia</text></g><g class="node" aria-label="graph-node46" transform="translate(-141.5867165618298,249.95909473711652)"><circle class="b-outline" cx="0" cy="0" r="32.5" fill="#57C7E3" stroke="#23b3d7" stroke-width="2px"/><text class="caption" text-anchor="middle" pointer-events="none" x="0" y="5" font-size="10px" fill="#2A2C34" font-family="Helvetica Neue, Helvetica, Arial, sans-serif"> China</text></g><g class="node" aria-label="graph-node14" transform="translate(30.54693019995787,-577.9807165498116)"><circle class="b-outline" cx="0" cy="0" r="32.5" fill="#57C7E3" stroke="#23b3d7" stroke-width="2px"/><text class="caption" text-anchor="middle" pointer-events="none" x="0" y="5" font-size="10px" fill="#2A2C34" font-family="Helvetica Neue, Helvetica, Arial, sans-serif"> Austria</text></g><g class="node" aria-label="graph-node87" transform="translate(-166.8733897920028,-360.33000108912574)"><circle class="b-outline" cx="0" cy="0" r="32.5" fill="#57C7E3" stroke="#23b3d7" stroke-width="2px"/><text class="caption" text-anchor="middle" pointer-events="none" x="0" y="5" font-size="10px" fill="#2A2C34" font-family="Helvetica Neue, Helvetica, Arial, sans-serif"> Germany</text></g><g class="node" aria-label="graph-node21" transform="translate(380.2804759286278,-192.3069065398438)"><circle class="b-outline" cx="0" cy="0" r="32.5" fill="#57C7E3" stroke="#23b3d7" stroke-width="2px"/><text class="caption" text-anchor="middle" pointer-events="none" x="0" y="5" font-size="10px" fill="#2A2C34" font-family="Helvetica Neue, Helvetica, Arial, sans-serif"> Belgium</text></g><g class="node" aria-label="graph-node471" transform="translate(147.89928251836096,-230.06327887154225)"><circle class="b-outline" cx="0" cy="0" r="32.5" fill="#57C7E3" stroke="#23b3d7" stroke-width="2px"/><text class="caption" text-anchor="middle" pointer-events="none" x="0" y="5" font-size="10px" fill="#2A2C34" font-family="Helvetica Neue, Helvetica, Arial, sans-serif"> Netherlands</text></g><g class="node" aria-label="graph-node34" transform="translate(-329.08857451125374,-549.1304044866363)"><circle class="b-outline" cx="0" cy="0" r="32.5" fill="#57C7E3" stroke="#23b3d7" stroke-width="2px"/><text class="caption" text-anchor="middle" pointer-events="none" x="0" y="5" font-size="10px" fill="#2A2C34" font-family="Helvetica Neue, Helvetica, Arial, sans-serif"> Bulgaria</text></g><g class="node" aria-label="graph-node41" transform="translate(-879.8616645826318,260.6957745143205)"><circle class="b-outline" cx="0" cy="0" r="32.5" fill="#57C7E3" stroke="#23b3d7" stroke-width="2px"/><text class="caption" text-anchor="middle" pointer-events="none" x="0" y="5" font-size="10px" fill="#2A2C34" font-family="Helvetica Neue, Helvetica, Arial, sans-serif"> Canada</text></g><g class="node" aria-label="graph-node550" transform="translate(-755.3056560507422,156.2124155429194)"><circle class="b-outline" cx="0" cy="0" r="32.5" fill="#57C7E3" stroke="#23b3d7" stroke-width="2px"/><text class="caption" text-anchor="middle" pointer-events="none" x="0" y="5" font-size="10px" fill="#2A2C34" font-family="Helvetica Neue, Helvetica, Arial, sans-serif"> United States</text></g><g class="node" aria-label="graph-node43" transform="translate(-402.1261522397762,615.7262695621407)"><circle class="b-outline" cx="0" cy="0" r="32.5" fill="#57C7E3" stroke="#23b3d7" stroke-width="2px"/><text class="caption" text-anchor="middle" pointer-events="none" x="0" y="-5" font-size="10px" fill="#2A2C34" font-family="Helvetica Neue, Helvetica, Arial, sans-serif"> Central</text><text class="caption" text-anchor="middle" pointer-events="none" x="0" y="5" font-size="10px" fill="#2A2C34" font-family="Helvetica Neue, Helvetica, Arial, sans-serif"> African</text><text class="caption" text-anchor="middle" pointer-events="none" x="0" y="15" font-size="10px" fill="#2A2C34" font-family="Helvetica Neue, Helvetica, Arial, sans-serif"> Republic</text></g><g class="node" aria-label="graph-node106" transform="translate(-502.07121275685915,416.26601051274037)"><circle class="b-outline" cx="0" cy="0" r="32.5" fill="#57C7E3" stroke="#23b3d7" stroke-width="2px"/><text class="caption" text-anchor="middle" pointer-events="none" x="0" y="5" font-size="10px" fill="#2A2C34" font-family="Helvetica Neue, Helvetica, Arial, sans-serif"> India</text></g><g class="node" aria-label="graph-node80" transform="translate(-494.60493822454487,-363.44000376838517)"><circle class="b-outline" cx="0" cy="0" r="32.5" fill="#57C7E3" stroke="#23b3d7" stroke-width="2px"/><text class="caption" text-anchor="middle" pointer-events="none" x="0" y="5" font-size="10px" fill="#2A2C34" font-family="Helvetica Neue, Helvetica, Arial, sans-serif"> France</text></g><g class="node" aria-label="graph-node90" transform="translate(-88.17479468910082,-632.5669982590912)"><circle class="b-outline" cx="0" cy="0" r="32.5" fill="#57C7E3" stroke="#23b3d7" stroke-width="2px"/><text class="caption" text-anchor="middle" pointer-events="none" x="0" y="5" font-size="10px" fill="#2A2C34" font-family="Helvetica Neue, Helvetica, Arial, sans-serif"> Greece</text></g><g class="node" aria-label="graph-node103" transform="translate(-95.89167432722212,-1.4386998467874719)"><circle class="b-outline" cx="0" cy="0" r="32.5" fill="#57C7E3" stroke="#23b3d7" stroke-width="2px"/><text class="caption" text-anchor="middle" pointer-events="none" x="0" y="5" font-size="10px" fill="#2A2C34" font-family="Helvetica Neue, Helvetica, Arial, sans-serif"> Hong Kong</text></g><g class="node" aria-label="graph-node105" transform="translate(456.1827889825155,-468.22012765329134)"><circle class="b-outline" cx="0" cy="0" r="32.5" fill="#57C7E3" stroke="#23b3d7" stroke-width="2px"/><text class="caption" text-anchor="middle" pointer-events="none" x="0" y="5" font-size="10px" fill="#2A2C34" font-family="Helvetica Neue, Helvetica, Arial, sans-serif"> Iceland</text></g><g class="node" aria-label="graph-node481" transform="translate(293.3223917674871,-502.8028549492054)"><circle class="b-outline" cx="0" cy="0" r="32.5" fill="#57C7E3" stroke="#23b3d7" stroke-width="2px"/><text class="caption" text-anchor="middle" pointer-events="none" x="0" y="5" font-size="10px" fill="#2A2C34" font-family="Helvetica Neue, Helvetica, Arial, sans-serif"> Norway</text></g><g class="node" aria-label="graph-node107" transform="translate(-74.15979407750018,481.7285504769874)"><circle class="b-outline" cx="0" cy="0" r="32.5" fill="#57C7E3" stroke="#23b3d7" stroke-width="2px"/><text class="caption" text-anchor="middle" pointer-events="none" x="0" y="5" font-size="10px" fill="#2A2C34" font-family="Helvetica Neue, Helvetica, Arial, sans-serif"> Indonesia</text></g><g class="node" aria-label="graph-node110" transform="translate(-739.8811426984353,-195.4336965988811)"><circle class="b-outline" cx="0" cy="0" r="32.5" fill="#57C7E3" stroke="#23b3d7" stroke-width="2px"/><text class="caption" text-anchor="middle" pointer-events="none" x="0" y="5" font-size="10px" fill="#2A2C34" font-family="Helvetica Neue, Helvetica, Arial, sans-serif"> Ireland</text></g><g class="node" aria-label="graph-node549" transform="translate(-478.1980850805495,-260.9565376452496)"><circle class="b-outline" cx="0" cy="0" r="32.5" fill="#57C7E3" stroke="#23b3d7" stroke-width="2px"/><text class="caption" text-anchor="middle" pointer-events="none" x="0" y="0" font-size="10px" fill="#2A2C34" font-family="Helvetica Neue, Helvetica, Arial, sans-serif"> United</text><text class="caption" text-anchor="middle" pointer-events="none" x="0" y="10" font-size="10px" fill="#2A2C34" font-family="Helvetica Neue, Helvetica, Arial, sans-serif"> Kingdom</text></g><g class="node" aria-label="graph-node113" transform="translate(-371.8137459581554,-193.14843399305363)"><circle class="b-outline" cx="0" cy="0" r="32.5" fill="#57C7E3" stroke="#23b3d7" stroke-width="2px"/><text class="caption" text-anchor="middle" pointer-events="none" x="0" y="5" font-size="10px" fill="#2A2C34" font-family="Helvetica Neue, Helvetica, Arial, sans-serif"> Italy</text></g><g class="node" aria-label="graph-node116" transform="translate(48.84737072589217,400.1452538961956)"><circle class="b-outline" cx="0" cy="0" r="32.5" fill="#57C7E3" stroke="#23b3d7" stroke-width="2px"/><text class="caption" text-anchor="middle" pointer-events="none" x="0" y="5" font-size="10px" fill="#2A2C34" font-family="Helvetica Neue, Helvetica, Arial, sans-serif"> Japan</text></g><g class="node" aria-label="graph-node118" transform="translate(82.52481712200074,106.66415649328351)"><circle class="b-outline" cx="0" cy="0" r="32.5" fill="#57C7E3" stroke="#23b3d7" stroke-width="2px"/><text class="caption" text-anchor="middle" pointer-events="none" x="0" y="5" font-size="10px" fill="#2A2C34" font-family="Helvetica Neue, Helvetica, Arial, sans-serif"> Jordan</text></g><g class="node" aria-label="graph-node120" transform="translate(-30.848217024106244,48.30234781156338)"><circle class="b-outline" cx="0" cy="0" r="32.5" fill="#57C7E3" stroke="#23b3d7" stroke-width="2px"/><text class="caption" text-anchor="middle" pointer-events="none" x="0" y="5" font-size="10px" fill="#2A2C34" font-family="Helvetica Neue, Helvetica, Arial, sans-serif"> Kenya</text></g><g class="node" aria-label="graph-node123" transform="translate(82.8071500400911,191.4836754001889)"><circle class="b-outline" cx="0" cy="0" r="32.5" fill="#57C7E3" stroke="#23b3d7" stroke-width="2px"/><text class="caption" text-anchor="middle" pointer-events="none" x="0" y="5" font-size="10px" fill="#2A2C34" font-family="Helvetica Neue, Helvetica, Arial, sans-serif"> South Korea</text></g><g class="node" aria-label="graph-node377" transform="translate(-281.86260908693345,8.509333474943418)"><circle class="b-outline" cx="0" cy="0" r="32.5" fill="#57C7E3" stroke="#23b3d7" stroke-width="2px"/><text class="caption" text-anchor="middle" pointer-events="none" x="0" y="5" font-size="10px" fill="#2A2C34" font-family="Helvetica Neue, Helvetica, Arial, sans-serif"> Kuwait</text></g><g class="node" aria-label="graph-node391" transform="translate(386.97929136224144,330.5103829718966)"><circle class="b-outline" cx="0" cy="0" r="32.5" fill="#57C7E3" stroke="#23b3d7" stroke-width="2px"/><text class="caption" text-anchor="middle" pointer-events="none" x="0" y="5" font-size="10px" fill="#2A2C34" font-family="Helvetica Neue, Helvetica, Arial, sans-serif"> Malaysia</text></g><g class="node" aria-label="graph-node514" transform="translate(205.6123276155488,304.3020832905738)"><circle class="b-outline" cx="0" cy="0" r="32.5" fill="#57C7E3" stroke="#23b3d7" stroke-width="2px"/><text class="caption" text-anchor="middle" pointer-events="none" x="0" y="5" font-size="10px" fill="#2A2C34" font-family="Helvetica Neue, Helvetica, Arial, sans-serif"> Singapore</text></g><g class="node" aria-label="graph-node394" transform="translate(282.6458469320957,-16.58236740246042)"><circle class="b-outline" cx="0" cy="0" r="32.5" fill="#57C7E3" stroke="#23b3d7" stroke-width="2px"/><text class="caption" text-anchor="middle" pointer-events="none" x="0" y="5" font-size="10px" fill="#2A2C34" font-family="Helvetica Neue, Helvetica, Arial, sans-serif"> Malta</text></g><g class="node" aria-label="graph-node497" transform="translate(70.3083140952151,25.87808027980111)"><circle class="b-outline" cx="0" cy="0" r="32.5" fill="#57C7E3" stroke="#23b3d7" stroke-width="2px"/><text class="caption" text-anchor="middle" pointer-events="none" x="0" y="5" font-size="10px" fill="#2A2C34" font-family="Helvetica Neue, Helvetica, Arial, sans-serif"> Russia</text></g><g class="node" aria-label="graph-node396" transform="translate(-279.9239794950424,114.27205827138715)"><circle class="b-outline" cx="0" cy="0" r="32.5" fill="#57C7E3" stroke="#23b3d7" stroke-width="2px"/><text class="caption" text-anchor="middle" pointer-events="none" x="0" y="5" font-size="10px" fill="#2A2C34" font-family="Helvetica Neue, Helvetica, Arial, sans-serif"> Mauritania</text></g><g class="node" aria-label="graph-node473" transform="translate(199.21158488485844,456.18503755845495)"><circle class="b-outline" cx="0" cy="0" r="32.5" fill="#57C7E3" stroke="#23b3d7" stroke-width="2px"/><text class="caption" text-anchor="middle" pointer-events="none" x="0" y="5" font-size="10px" fill="#2A2C34" font-family="Helvetica Neue, Helvetica, Arial, sans-serif"> New Zealand</text></g><g class="node" aria-label="graph-node529" transform="translate(92.75133976197844,-485.28845569965256)"><circle class="b-outline" cx="0" cy="0" r="32.5" fill="#57C7E3" stroke="#23b3d7" stroke-width="2px"/><text class="caption" text-anchor="middle" pointer-events="none" x="0" y="5" font-size="10px" fill="#2A2C34" font-family="Helvetica Neue, Helvetica, Arial, sans-serif"> Sweden</text></g><g class="node" aria-label="graph-node490" transform="translate(-294.56469679683335,385.46558007889263)"><circle class="b-outline" cx="0" cy="0" r="32.5" fill="#57C7E3" stroke="#23b3d7" stroke-width="2px"/><text class="caption" text-anchor="middle" pointer-events="none" x="0" y="5" font-size="10px" fill="#2A2C34" font-family="Helvetica Neue, Helvetica, Arial, sans-serif"> Philippines</text></g><g class="node" aria-label="graph-node492" transform="translate(-258.19251279961,-191.20492525738183)"><circle class="b-outline" cx="0" cy="0" r="32.5" fill="#57C7E3" stroke="#23b3d7" stroke-width="2px"/><text class="caption" text-anchor="middle" pointer-events="none" x="0" y="5" font-size="10px" fill="#2A2C34" font-family="Helvetica Neue, Helvetica, Arial, sans-serif"> Poland</text></g><g class="node" aria-label="graph-node493" transform="translate(-481.645378623865,-615.9015972031212)"><circle class="b-outline" cx="0" cy="0" r="32.5" fill="#57C7E3" stroke="#23b3d7" stroke-width="2px"/><text class="caption" text-anchor="middle" pointer-events="none" x="0" y="5" font-size="10px" fill="#2A2C34" font-family="Helvetica Neue, Helvetica, Arial, sans-serif"> Portugal</text></g><g class="node" aria-label="graph-node523" transform="translate(-573.6774171316031,-474.6576391483876)"><circle class="b-outline" cx="0" cy="0" r="32.5" fill="#57C7E3" stroke="#23b3d7" stroke-width="2px"/><text class="caption" text-anchor="middle" pointer-events="none" x="0" y="5" font-size="10px" fill="#2A2C34" font-family="Helvetica Neue, Helvetica, Arial, sans-serif"> Spain</text></g><g class="node" aria-label="graph-node495" transform="translate(-841.5826756838081,47.39042420905613)"><circle class="b-outline" cx="0" cy="0" r="32.5" fill="#57C7E3" stroke="#23b3d7" stroke-width="2px"/><text class="caption" text-anchor="middle" pointer-events="none" x="0" y="5" font-size="10px" fill="#2A2C34" font-family="Helvetica Neue, Helvetica, Arial, sans-serif"> Qatar</text></g><g class="node" aria-label="graph-node496" transform="translate(81.81163582947678,-138.57286723430906)"><circle class="b-outline" cx="0" cy="0" r="32.5" fill="#57C7E3" stroke="#23b3d7" stroke-width="2px"/><text class="caption" text-anchor="middle" pointer-events="none" x="0" y="5" font-size="10px" fill="#2A2C34" font-family="Helvetica Neue, Helvetica, Arial, sans-serif"> Romania</text></g><g class="node" aria-label="graph-node507" transform="translate(-214.70564879028163,-592.675820024638)"><circle class="b-outline" cx="0" cy="0" r="32.5" fill="#57C7E3" stroke="#23b3d7" stroke-width="2px"/><text class="caption" text-anchor="middle" pointer-events="none" x="0" y="5" font-size="10px" fill="#2A2C34" font-family="Helvetica Neue, Helvetica, Arial, sans-serif"> San Marino</text></g><g class="node" aria-label="graph-node509" transform="translate(-318.12766187921807,495.2945240152287)"><circle class="b-outline" cx="0" cy="0" r="32.5" fill="#57C7E3" stroke="#23b3d7" stroke-width="2px"/><text class="caption" text-anchor="middle" pointer-events="none" x="0" y="5" font-size="10px" fill="#2A2C34" font-family="Helvetica Neue, Helvetica, Arial, sans-serif"> Saudi Arabia</text></g><g class="node" aria-label="graph-node511" transform="translate(-65.8658338790673,-147.5454078696058)"><circle class="b-outline" cx="0" cy="0" r="32.5" fill="#57C7E3" stroke="#23b3d7" stroke-width="2px"/><text class="caption" text-anchor="middle" pointer-events="none" x="0" y="5" font-size="10px" fill="#2A2C34" font-family="Helvetica Neue, Helvetica, Arial, sans-serif"> Serbia</text></g><g class="node" aria-label="graph-node512" transform="translate(-740.706683229106,588.7535229832612)"><circle class="b-outline" cx="0" cy="0" r="32.5" fill="#57C7E3" stroke="#23b3d7" stroke-width="2px"/><text class="caption" text-anchor="middle" pointer-events="none" x="0" y="5" font-size="10px" fill="#2A2C34" font-family="Helvetica Neue, Helvetica, Arial, sans-serif"> Seychelles</text></g><g class="node" aria-label="graph-node548" transform="translate(-626.3019972008749,486.98614310148037)"><circle class="b-outline" cx="0" cy="0" r="32.5" fill="#57C7E3" stroke="#23b3d7" stroke-width="2px"/><text class="caption" text-anchor="middle" pointer-events="none" x="0" y="0" font-size="10px" fill="#2A2C34" font-family="Helvetica Neue, Helvetica, Arial, sans-serif"> United Arab</text><text class="caption" text-anchor="middle" pointer-events="none" x="0" y="10" font-size="10px" fill="#2A2C34" font-family="Helvetica Neue, Helvetica, Arial, sans-serif"> Emirates</text></g><g class="node" aria-label="graph-node517" transform="translate(-398.9750099438019,-455.15452195057844)"><circle class="b-outline" cx="0" cy="0" r="32.5" fill="#57C7E3" stroke="#23b3d7" stroke-width="2px"/><text class="caption" text-anchor="middle" pointer-events="none" x="0" y="5" font-size="10px" fill="#2A2C34" font-family="Helvetica Neue, Helvetica, Arial, sans-serif"> Slovenia</text></g><g class="node" aria-label="graph-node520" transform="translate(44.21461945569628,478.86998635104476)"><circle class="b-outline" cx="0" cy="0" r="32.5" fill="#57C7E3" stroke="#23b3d7" stroke-width="2px"/><text class="caption" text-anchor="middle" pointer-events="none" x="0" y="5" font-size="10px" fill="#2A2C34" font-family="Helvetica Neue, Helvetica, Arial, sans-serif"> South Africa</text></g><g class="node" aria-label="graph-node530" transform="translate(162.15668585863048,-370.59585072937426)"><circle class="b-outline" cx="0" cy="0" r="32.5" fill="#57C7E3" stroke="#23b3d7" stroke-width="2px"/><text class="caption" text-anchor="middle" pointer-events="none" x="0" y="5" font-size="10px" fill="#2A2C34" font-family="Helvetica Neue, Helvetica, Arial, sans-serif"> Switzerland</text></g><g class="node" aria-label="graph-node532" transform="translate(236.71195286021418,240.30143472466932)"><circle class="b-outline" cx="0" cy="0" r="32.5" fill="#57C7E3" stroke="#23b3d7" stroke-width="2px"/><text class="caption" text-anchor="middle" pointer-events="none" x="0" y="5" font-size="10px" fill="#2A2C34" font-family="Helvetica Neue, Helvetica, Arial, sans-serif"> Taiwan</text></g><g class="node" aria-label="graph-node535" transform="translate(132.63550964798003,352.73971381403055)"><circle class="b-outline" cx="0" cy="0" r="32.5" fill="#57C7E3" stroke="#23b3d7" stroke-width="2px"/><text class="caption" text-anchor="middle" pointer-events="none" x="0" y="5" font-size="10px" fill="#2A2C34" font-family="Helvetica Neue, Helvetica, Arial, sans-serif"> Thailand</text></g><g class="node" aria-label="graph-node546" transform="translate(-378.10396174005115,293.7739492938654)"><circle class="b-outline" cx="0" cy="0" r="32.5" fill="#57C7E3" stroke="#23b3d7" stroke-width="2px"/><text class="caption" text-anchor="middle" pointer-events="none" x="0" y="5" font-size="10px" fill="#2A2C34" font-family="Helvetica Neue, Helvetica, Arial, sans-serif"> Uganda</text></g><g class="node" aria-label="graph-node556" transform="translate(-187.81463869220605,53.806359963587596)"><circle class="b-outline" cx="0" cy="0" r="32.5" fill="#57C7E3" stroke="#23b3d7" stroke-width="2px"/><text class="caption" text-anchor="middle" pointer-events="none" x="0" y="5" font-size="10px" fill="#2A2C34" font-family="Helvetica Neue, Helvetica, Arial, sans-serif"> Vietnam</text></g></g></svg>